<svg id="american-express" xmlns="http://www.w3.org/2000/svg" width="54.063" height="18.793" viewBox="0 0 54.063 18.793">
  <path id="Path_4440" data-name="Path 4440" d="M43.2,187.6h1.888l-.944-2.4Z" transform="translate(-38.566 -182.969)" fill="#2fabf7"/>
  <path id="Path_4441" data-name="Path 4441" d="M241.6,187.686a1.673,1.673,0,0,0-.687-.086H239.2v1.373h1.716a1.673,1.673,0,0,0,.687-.086.668.668,0,0,0,.257-.6A.477.477,0,0,0,241.6,187.686Z" transform="translate(-213.541 -185.111)" fill="#228fe0"/>
  <path id="Path_4442" data-name="Path 4442" d="M46.426,164.4v1.03l-.515-1.03H41.878v1.03l-.515-1.03H35.871a5.225,5.225,0,0,0-2.4.515V164.4H29.606v.515a2.474,2.474,0,0,0-1.63-.515H14.159l-.944,2.145-.944-2.145H7.895v1.03L7.38,164.4H3.69l-1.716,4.033L0,172.9H4.377l.515-1.373h1.2l.515,1.373h4.977v-1.03l.429,1.03H14.5l.429-1.03v1.03H26.86v-2.231h.172c.172,0,.172,0,.172.257v1.888h6.179v-.515a5.141,5.141,0,0,0,2.317.515h2.574l.515-1.373h1.2l.515,1.373h4.977v-1.287l.772,1.287h4.033V164.4ZM17.42,171.608H15.962v-4.72l-2.06,4.72H12.615l-2.06-4.72v4.72H7.638l-.6-1.287H4.119L3.6,171.694H1.974L4.548,165.6H6.694l2.4,5.75V165.6h2.317L13.3,169.72l1.716-4.119h2.4Zm5.835-4.72H19.909V168H23.17v1.2H19.909v1.2h3.347v1.287H18.45V165.6h4.806Zm6.436,2.489a2.147,2.147,0,0,1,.257,1.116v1.2H28.49v-.772a2.044,2.044,0,0,0-.257-1.2c-.257-.257-.515-.257-1.03-.257H25.659v2.231H24.2V165.6h3.261a3.29,3.29,0,0,1,1.716.257,1.462,1.462,0,0,1,.687,1.373,1.708,1.708,0,0,1-1.03,1.63A1.632,1.632,0,0,1,29.692,169.377Zm2.574,2.231H30.807v-6.093h1.459Zm16.905,0h-2.06l-2.746-4.548v4.548H41.448l-.515-1.287h-3l-.515,1.373h-1.63a2.58,2.58,0,0,1-2.832-3,3.517,3.517,0,0,1,.772-2.4,2.7,2.7,0,0,1,2.145-.687h1.373v1.287H35.871a1.582,1.582,0,0,0-1.116.343,2.015,2.015,0,0,0-.429,1.373,1.867,1.867,0,0,0,.429,1.459,1.368,1.368,0,0,0,1.03.343h.6l1.974-4.72H40.5l2.4,5.75v-5.75h2.145l2.489,4.2v-4.2H49v5.921Z" transform="translate(0 -164.4)" fill="#0571c1"/>
  <g id="Group_904" data-name="Group 904" transform="translate(21.625 2.231)">
    <path id="Path_4443" data-name="Path 4443" d="M358.4,187.6h1.974l-.944-2.4Z" transform="translate(-341.58 -185.2)" fill="#228fe0"/>
    <path id="Path_4444" data-name="Path 4444" d="M203.831,282.091V277.2l-2.231,2.4Z" transform="translate(-201.6 -267.331)" fill="#228fe0"/>
  </g>
  <path id="Path_4445" data-name="Path 4445" d="M136.8,282.8v1.116h3.175v1.2H136.8V286.4h3.518l1.63-1.8-1.545-1.8Z" transform="translate(-122.126 -270.099)" fill="#2fabf7"/>
  <path id="SVGCleanerId_0" d="M237.8,282.8H236v1.545h1.888c.515,0,.858-.257.858-.772A.865.865,0,0,0,237.8,282.8Z" transform="translate(-210.685 -270.099)" fill="#228fe0"/>
  <path id="Path_4446" data-name="Path 4446" d="M152.906,264.262V260.4h-3.6a2.816,2.816,0,0,0-1.8.515V260.4h-3.947a2.723,2.723,0,0,0-1.716.515V260.4h-6.951v.515A3.318,3.318,0,0,0,133,260.4h-4.634v.515a3.257,3.257,0,0,0-1.974-.515H121.24l-1.2,1.287-1.116-1.287H111.2v8.41h7.552l1.2-1.287,1.116,1.287H125.7v-1.974h.6a5.221,5.221,0,0,0,1.974-.257V268.9h3.862v-2.231h.172c.257,0,.257,0,.257.257V268.9h11.671a3.364,3.364,0,0,0,1.974-.515v.515h3.69a3.854,3.854,0,0,0,2.06-.429h0a2.921,2.921,0,0,0,1.373-2.574A3.286,3.286,0,0,0,152.906,264.262Zm-26.6,1.373h-1.716v2.06h-2.746l-1.716-1.974-1.8,1.974h-5.664V261.6h5.75l1.716,1.974,1.8-1.974h4.548c1.116,0,2.4.343,2.4,1.974C128.792,265.291,127.591,265.635,126.3,265.635Zm8.581-.343a1.947,1.947,0,0,1,.257,1.116v1.2h-1.459v-.772a1.916,1.916,0,0,0-.257-1.2c-.172-.257-.515-.257-1.03-.257h-1.545v2.231h-1.459v-6.093h3.261a3.455,3.455,0,0,1,1.716.257,1.518,1.518,0,0,1,.772,1.373,1.708,1.708,0,0,1-1.03,1.63A1.468,1.468,0,0,1,134.885,265.291Zm5.921-2.489h-3.347v1.116h3.261v1.2h-3.261v1.2h3.347v1.287H136v-6.093h4.806Zm3.6,4.806h-2.746v-1.287h2.746a.724.724,0,0,0,.6-.172.622.622,0,0,0,0-.858.725.725,0,0,0-.515-.172c-1.373-.086-3,0-3-1.888,0-.858.515-1.8,2.06-1.8h2.832v1.459h-2.66a1.273,1.273,0,0,0-.6.086c-.172.086-.172.257-.172.429,0,.257.172.343.343.429a1.088,1.088,0,0,0,.515.086h.772a2.185,2.185,0,0,1,1.63.515,1.776,1.776,0,0,1,.429,1.287C146.641,267.008,145.869,267.608,144.41,267.608Zm7.38-.6a2.5,2.5,0,0,1-1.8.6h-2.746v-1.287h2.746a.724.724,0,0,0,.6-.172.622.622,0,0,0,0-.858.725.725,0,0,0-.515-.172c-1.373-.086-3,0-3-1.888,0-.858.515-1.8,2.06-1.8h2.832v1.459h-2.574a1.272,1.272,0,0,0-.6.086c-.172.086-.172.257-.172.429,0,.257.086.343.343.429a1.088,1.088,0,0,0,.515.086h.772a2.185,2.185,0,0,1,1.63.515.084.084,0,0,1,.086.086,1.971,1.971,0,0,1,.343,1.2A1.747,1.747,0,0,1,151.79,267.008Z" transform="translate(-99.272 -250.102)" fill="#0571c1"/>
  <path id="SVGCleanerId_1" d="M297.6,283.686a1.673,1.673,0,0,0-.686-.086H295.2v1.373h1.716a1.673,1.673,0,0,0,.686-.086.668.668,0,0,0,.257-.6A.477.477,0,0,0,297.6,283.686Z" transform="translate(-263.534 -270.814)" fill="#228fe0"/>
  <g id="Group_905" data-name="Group 905" transform="translate(21.625 2.231)">
    <path id="Path_4447" data-name="Path 4447" d="M241.6,187.686a1.673,1.673,0,0,0-.687-.086H239.2v1.373h1.716a1.673,1.673,0,0,0,.687-.086.668.668,0,0,0,.257-.6A.477.477,0,0,0,241.6,187.686Z" transform="translate(-235.167 -187.343)" fill="#228fe0"/>
    <path id="Path_4448" data-name="Path 4448" d="M358.4,187.6h1.974l-.944-2.4Z" transform="translate(-341.58 -185.2)" fill="#228fe0"/>
    <path id="Path_4449" data-name="Path 4449" d="M203.831,282.091V277.2l-2.231,2.4Z" transform="translate(-201.6 -267.331)" fill="#228fe0"/>
  </g>
  <g id="Group_906" data-name="Group 906" transform="translate(25.315 12.701)">
    <path id="SVGCleanerId_0_1_" d="M237.8,282.8H236v1.545h1.888c.515,0,.858-.257.858-.772A.865.865,0,0,0,237.8,282.8Z" transform="translate(-236 -282.8)" fill="#228fe0"/>
  </g>
  <g id="Group_907" data-name="Group 907" transform="translate(31.666 12.786)">
    <path id="SVGCleanerId_1_1_" d="M297.6,283.686a1.673,1.673,0,0,0-.686-.086H295.2v1.373h1.716a1.673,1.673,0,0,0,.686-.086.668.668,0,0,0,.257-.6A.477.477,0,0,0,297.6,283.686Z" transform="translate(-295.2 -283.6)" fill="#228fe0"/>
  </g>
  <g id="Group_908" data-name="Group 908">
    <path id="Path_4450" data-name="Path 4450" d="M125.788,267.437l-1.2-1.287v1.459h-2.832l-1.716-1.974-1.888,1.974h-5.664V261.6h5.75l1.8,1.974.858-1.03-2.145-2.145H111.2v8.41h7.552l1.287-1.287,1.116,1.287h4.634Z" transform="translate(-99.272 -250.102)" fill="#2fabf7"/>
    <path id="Path_4451" data-name="Path 4451" d="M17.592,172.81l-1.116-1.2h-.515v-.515l-1.287-1.287-.858,1.8h-1.2l-2.06-4.72v4.72H7.638l-.6-1.287H4.119l-.6,1.287H1.974L4.548,165.6H6.694l2.4,5.75V165.6h1.287l-1.2-1.2H7.895v1.03l-.429-1.03H3.69l-1.716,4.033L0,172.81H4.462l.515-1.287h1.2l.6,1.287h4.806v-1.03l.429,1.03H14.5l.429-1.03v1.03Z" transform="translate(0 -164.4)" fill="#2fabf7"/>
    <path id="Path_4452" data-name="Path 4452" d="M115.773,194.573,114.4,193.2l1.03,2.231Z" transform="translate(-102.129 -190.111)" fill="#2fabf7"/>
  </g>
  <g id="Group_909" data-name="Group 909" transform="translate(8.496 0.086)">
    <path id="Path_4453" data-name="Path 4453" d="M208.383,266.238a3.139,3.139,0,0,0,1.373-2.317l-1.2-1.2a2.538,2.538,0,0,1,.172.858,1.747,1.747,0,0,1-.515,1.287,2.5,2.5,0,0,1-1.8.6h-2.746v-1.287h2.746a.724.724,0,0,0,.6-.172.622.622,0,0,0,0-.858.726.726,0,0,0-.515-.172c-1.373-.086-3,0-3-1.888,0-.858.515-1.63,1.8-1.8l-.944-.944c-.172.086-.257.172-.343.172V258h-3.948a2.723,2.723,0,0,0-1.716.515V258h-7.037v.515a3.317,3.317,0,0,0-1.888-.515h-4.634v.515A3.257,3.257,0,0,0,182.81,258h-5.149l-1.2,1.287L175.344,258H174.4l2.574,2.574,1.287-1.373h4.548c1.116,0,2.4.343,2.4,1.974,0,1.716-1.2,2.06-2.489,2.06h-1.716v1.287l1.287,1.287v-1.287h.429a5.221,5.221,0,0,0,1.974-.257v2.317h3.862V264.35h.172c.257,0,.257,0,.257.257v1.974h11.671a3.365,3.365,0,0,0,1.974-.515v.515h3.69a3.4,3.4,0,0,0,2.06-.343Zm-17.077-3.089a1.947,1.947,0,0,1,.257,1.116v1.2H190.1v-.772a1.916,1.916,0,0,0-.257-1.2c-.172-.257-.515-.257-1.03-.257h-1.545v2.231h-1.459v-6.093h3.261a3.455,3.455,0,0,1,1.716.257,1.518,1.518,0,0,1,.772,1.373,1.708,1.708,0,0,1-1.03,1.63A1.468,1.468,0,0,1,191.305,263.149Zm5.921-2.489H193.88v1.116h3.261v1.2H193.88v1.2h3.347v1.287h-4.806v-6.093h4.806Zm3.6,4.806h-2.746v-1.287h2.746a.724.724,0,0,0,.6-.172.622.622,0,0,0,0-.858.726.726,0,0,0-.515-.172c-1.373-.086-3,0-3-1.888,0-.858.515-1.8,2.06-1.8H202.8v1.459h-2.66a1.273,1.273,0,0,0-.6.086c-.172.086-.172.258-.172.429,0,.257.172.343.343.429a1.089,1.089,0,0,0,.515.086H201a2.185,2.185,0,0,1,1.63.515,1.776,1.776,0,0,1,.429,1.287C203.062,264.865,202.29,265.466,200.831,265.466Z" transform="translate(-164.188 -248.046)" fill="#228fe0"/>
    <path id="Path_4454" data-name="Path 4454" d="M459.2,284.115c0,.257.086.343.343.429a1.088,1.088,0,0,0,.515.086h.772a2.492,2.492,0,0,1,1.2.258l-1.287-1.287h-.772a1.272,1.272,0,0,0-.6.086A.656.656,0,0,0,459.2,284.115Z" transform="translate(-418.438 -270.899)" fill="#228fe0"/>
    <path id="Path_4455" data-name="Path 4455" d="M431.2,240.4l.172.257h.086Z" transform="translate(-393.442 -232.333)" fill="#228fe0"/>
    <path id="Path_4456" data-name="Path 4456" d="M387.2,196.4l1.459,3.518v-2.06Z" transform="translate(-354.161 -193.053)" fill="#228fe0"/>
    <path id="Path_4457" data-name="Path 4457" d="M97.564,171.379h.172c.172,0,.172,0,.172.257v1.888h6.179v-.515a5.141,5.141,0,0,0,2.317.515h2.574l.515-1.373h1.2l.515,1.373h4.977v-.858l-1.2-1.2v.944h-2.918l-.429-1.373h-3l-.515,1.373h-1.63a2.58,2.58,0,0,1-2.832-3,3.518,3.518,0,0,1,.772-2.4,2.7,2.7,0,0,1,2.145-.687h1.373V167.6h-1.373a1.582,1.582,0,0,0-1.116.343,2.015,2.015,0,0,0-.429,1.373,1.867,1.867,0,0,0,.429,1.459,1.368,1.368,0,0,0,1.03.343h.6l1.974-4.72h.858l-1.2-1.2h-2.231a5.225,5.225,0,0,0-2.4.515V165.2H100.31v.515a2.474,2.474,0,0,0-1.63-.515H84.864l-.944,2.145-.944-2.145H79.2l1.2,1.2h1.716l1.459,3.175.515.515,1.545-3.776h2.4v6.093H86.58v-4.72l-1.459,3.433,2.489,2.489h9.869Zm3.947-5.063h1.459v6.093h-1.459ZM93.96,167.6H90.613v1.116h3.261v1.2H90.613v1.2H93.96v1.287H89.155v-6.093H93.96Zm2.4,4.72H94.9V166.23h3.261a3.29,3.29,0,0,1,1.716.257,1.462,1.462,0,0,1,.687,1.373,1.708,1.708,0,0,1-1.03,1.63,1.123,1.123,0,0,1,.687.515,2.147,2.147,0,0,1,.257,1.116v1.2H99.023v-.772a2.044,2.044,0,0,0-.257-1.2c-.086-.172-.343-.172-.858-.172H96.363v2.145Z" transform="translate(-79.2 -165.2)" fill="#228fe0"/>
  </g>
</svg>
