<svg xmlns="http://www.w3.org/2000/svg" width="31.322" height="18.793" viewBox="0 0 31.322 18.793">
  <g id="mastercard" transform="translate(0 0)">
    <path id="Path_4478" data-name="Path 4478" d="M220.393,110.2a9.4,9.4,0,1,1-18.793,0h0a9.4,9.4,0,1,1,18.793,0Z" transform="translate(-189.071 -100.8)" fill="#ffb600"/>
    <path id="Path_4479" data-name="Path 4479" d="M211,100.8a9.421,9.421,0,0,1,9.4,9.4h0a9.4,9.4,0,0,1-18.793,0" transform="translate(-189.071 -100.8)" fill="#f7981d"/>
    <path id="Path_4480" data-name="Path 4480" d="M352.8,100.8a9.421,9.421,0,0,1,9.4,9.4h0a9.389,9.389,0,0,1-9.4,9.4" transform="translate(-330.874 -100.8)" fill="#ff8500"/>
    <path id="Path_4481" data-name="Path 4481" d="M9.3,100.8a9.4,9.4,0,0,0,.1,18.793,9.506,9.506,0,0,0,6.314-2.436h0a8.933,8.933,0,0,0,.945-.994H14.717a11.472,11.472,0,0,1-.7-.945h3.331a6.369,6.369,0,0,0,.547-.994H13.474a5.926,5.926,0,0,1-.4-.994h5.171a9.872,9.872,0,0,0,.5-2.983,12.833,12.833,0,0,0-.2-1.989H12.778a7.267,7.267,0,0,1,.249-.994H18.2a5.925,5.925,0,0,0-.4-.994H13.424a9.86,9.86,0,0,1,.547-.994H17.3a4.728,4.728,0,0,0-.746-.994h-1.84a8.474,8.474,0,0,1,.945-.945A9.174,9.174,0,0,0,9.347,100.9C9.347,100.8,9.347,100.8,9.3,100.8Z" transform="translate(0 -100.8)" fill="#ff5050"/>
    <path id="Path_4482" data-name="Path 4482" d="M0,111.7a9.389,9.389,0,0,0,9.4,9.4,9.506,9.506,0,0,0,6.314-2.436h0a8.933,8.933,0,0,0,.945-.994H14.717a11.47,11.47,0,0,1-.7-.945h3.331a6.368,6.368,0,0,0,.547-.994H13.474a5.925,5.925,0,0,1-.4-.994h5.171a9.872,9.872,0,0,0,.5-2.983,12.834,12.834,0,0,0-.2-1.989H12.778a7.268,7.268,0,0,1,.249-.994H18.2a5.925,5.925,0,0,0-.4-.994H13.424a9.861,9.861,0,0,1,.547-.994H17.3a4.727,4.727,0,0,0-.746-.994h-1.84a8.475,8.475,0,0,1,.945-.945A9.174,9.174,0,0,0,9.347,102.4H9.3" transform="translate(0 -102.301)" fill="#e52836"/>
    <path id="Path_4483" data-name="Path 4483" d="M149.7,121.094a9.506,9.506,0,0,0,6.314-2.436h0a8.936,8.936,0,0,0,.945-.994h-1.939a11.468,11.468,0,0,1-.7-.945h3.331a6.37,6.37,0,0,0,.547-.994h-4.425a5.925,5.925,0,0,1-.4-.994h5.171a9.873,9.873,0,0,0,.5-2.983,12.835,12.835,0,0,0-.2-1.989H153.08a7.271,7.271,0,0,1,.249-.994H158.5a5.926,5.926,0,0,0-.4-.994h-4.375a9.868,9.868,0,0,1,.547-.994H157.6a4.728,4.728,0,0,0-.746-.994h-1.84a8.471,8.471,0,0,1,.945-.945,9.175,9.175,0,0,0-6.314-2.436h-.05" transform="translate(-140.303 -102.301)" fill="#cb2026"/>
    <g id="Group_913" data-name="Group 913" transform="translate(0.895 6.961)">
      <path id="Path_4484" data-name="Path 4484" d="M183.042,224.375l.149-.845a2.154,2.154,0,0,1-.249.05c-.348,0-.4-.2-.348-.3l.3-1.74h.547l.149-.945h-.5l.1-.6H182.2s-.6,3.281-.6,3.679a.746.746,0,0,0,.8.845A1.526,1.526,0,0,0,183.042,224.375Z" transform="translate(-171.209 -219.553)" fill="#fff"/>
      <path id="Path_4485" data-name="Path 4485" d="M210.4,230.942a1.581,1.581,0,0,0,1.74,1.74,2.582,2.582,0,0,0,1.044-.149l.2-.945a2.981,2.981,0,0,1-1.044.249c-1.094,0-.895-.8-.895-.8h2.038a6.446,6.446,0,0,0,.149-.895,1.347,1.347,0,0,0-1.442-1.442C211.146,228.606,210.4,229.7,210.4,230.942Zm1.74-1.442c.547,0,.447.646.447.7h-1.094C211.494,230.147,211.593,229.5,212.14,229.5Z" transform="translate(-198.219 -227.711)" fill="#fff"/>
      <path id="Path_4486" data-name="Path 4486" d="M298.734,217.623l.2-1.094a2.443,2.443,0,0,1-.845.249c-.7,0-.994-.547-.994-1.143,0-1.193.6-1.84,1.293-1.84a1.66,1.66,0,0,1,.895.3l.149-1.044a3.5,3.5,0,0,0-1.143-.249c-1.144,0-2.287.994-2.287,2.884,0,1.243.6,2.088,1.79,2.088A4.463,4.463,0,0,0,298.734,217.623Z" transform="translate(-278.499 -212.8)" fill="#fff"/>
      <path id="Path_4487" data-name="Path 4487" d="M88.289,227.2a3.521,3.521,0,0,0-1.193.2l-.149.845a2.939,2.939,0,0,1,1.094-.2c.348,0,.646.05.646.348,0,.2-.05.249-.05.249H88.19c-.845,0-1.79.348-1.79,1.492,0,.895.6,1.094.945,1.094a1.494,1.494,0,0,0,1.044-.448l-.05.4h.895l.4-2.734A1.178,1.178,0,0,0,88.289,227.2Zm.2,2.237c0,.149-.1.945-.7.945a.388.388,0,0,1-.4-.4c0-.249.149-.6.895-.6A.784.784,0,0,0,88.488,229.437Z" transform="translate(-81.925 -226.305)" fill="#fff"/>
      <path id="Path_4488" data-name="Path 4488" d="M136.344,230.477a1.274,1.274,0,0,0,1.492-1.293c0-1.243-1.193-.994-1.193-1.492,0-.249.2-.348.547-.348.149,0,.7.05.7.05l.149-.895a3.775,3.775,0,0,0-.945-.1c-.746,0-1.492.3-1.492,1.293,0,1.143,1.243,1.044,1.243,1.492,0,.3-.348.348-.6.348a3.252,3.252,0,0,1-.895-.149l-.149.895C135.25,230.377,135.5,230.477,136.344,230.477Z" transform="translate(-127.693 -225.555)" fill="#fff"/>
      <path id="Path_4489" data-name="Path 4489" d="M430.034,214.4l-.2,1.342a1.379,1.379,0,0,0-.945-.5c-.895,0-1.69,1.094-1.69,2.386,0,.8.4,1.641,1.243,1.641a1.327,1.327,0,0,0,.945-.4l-.05.348h.994l.746-4.773Zm-.447,2.635c0,.547-.249,1.243-.8,1.243-.348,0-.547-.3-.547-.8,0-.8.348-1.293.8-1.293C429.388,216.19,429.586,216.438,429.586,217.035Z" transform="translate(-401.546 -214.301)" fill="#fff"/>
      <path id="Path_4490" data-name="Path 4490" d="M15.345,219.173l.6-3.58.1,3.58h.7l1.293-3.58-.547,3.58h1.044l.8-4.773H17.681l-.994,2.933-.05-2.933H15.2l-.8,4.773Z" transform="translate(-14.4 -214.301)" fill="#fff"/>
      <path id="Path_4491" data-name="Path 4491" d="M261.094,232.678c.3-1.641.348-2.983,1.044-2.735a3.907,3.907,0,0,1,.348-1.143h-.2c-.447,0-.8.6-.8.6l.1-.547h-.945L260,232.728h1.094Z" transform="translate(-244.737 -227.806)" fill="#fff"/>
      <path id="Path_4492" data-name="Path 4492" d="M348.289,227.2a3.522,3.522,0,0,0-1.193.2l-.149.845a2.939,2.939,0,0,1,1.094-.2c.348,0,.646.05.646.348,0,.2-.05.249-.05.249h-.448c-.845,0-1.79.348-1.79,1.492,0,.895.6,1.094.945,1.094a1.494,1.494,0,0,0,1.044-.448l-.05.4h.895l.4-2.734A1.161,1.161,0,0,0,348.289,227.2Zm.249,2.237c0,.149-.1.945-.7.945a.388.388,0,0,1-.4-.4c0-.249.149-.6.895-.6C348.488,229.437,348.488,229.437,348.538,229.437Z" transform="translate(-325.767 -226.305)" fill="#fff"/>
      <path id="Path_4493" data-name="Path 4493" d="M395.494,232.678c.3-1.641.348-2.983,1.044-2.735a3.9,3.9,0,0,1,.348-1.143h-.2c-.447,0-.8.6-.8.6l.1-.547h-.945l-.646,3.878h1.094Z" transform="translate(-370.784 -227.806)" fill="#fff"/>
    </g>
    <g id="Group_914" data-name="Group 914" transform="translate(0.895 6.961)">
      <path id="Path_4494" data-name="Path 4494" d="M180,223.679a.746.746,0,0,0,.8.845,1.893,1.893,0,0,0,.746-.149l.149-.845a2.152,2.152,0,0,1-.249.05c-.348,0-.4-.2-.348-.3l.3-1.74h.547l.149-.945h-.5l.1-.6" transform="translate(-169.708 -219.553)" fill="#dce5e5"/>
      <path id="Path_4495" data-name="Path 4495" d="M218.4,230.942c0,1.392.447,1.74,1.243,1.74a2.582,2.582,0,0,0,1.044-.149l.2-.945a2.981,2.981,0,0,1-1.044.249c-1.094,0-.895-.8-.895-.8h2.038a6.446,6.446,0,0,0,.149-.895,1.347,1.347,0,0,0-1.442-1.442C218.649,228.606,218.4,229.7,218.4,230.942Zm1.243-1.442c.547,0,.646.646.646.7H219C219,230.147,219.1,229.5,219.643,229.5Z" transform="translate(-205.722 -227.711)" fill="#dce5e5"/>
      <path id="Path_4496" data-name="Path 4496" d="M306.237,217.623l.2-1.094a2.443,2.443,0,0,1-.845.249c-.7,0-.994-.547-.994-1.143,0-1.193.6-1.84,1.293-1.84a1.66,1.66,0,0,1,.895.3l.149-1.044a3.5,3.5,0,0,0-1.143-.249c-1.143,0-1.79.994-1.79,2.884,0,1.243.1,2.088,1.293,2.088A4.463,4.463,0,0,0,306.237,217.623Z" transform="translate(-286.002 -212.8)" fill="#dce5e5"/>
      <path id="Path_4497" data-name="Path 4497" d="M86.947,229.794a2.939,2.939,0,0,1,1.094-.2c.348,0,.646.05.646.348,0,.2-.05.249-.05.249H88.19c-.845,0-1.79.348-1.79,1.492,0,.895.6,1.094.945,1.094a1.494,1.494,0,0,0,1.044-.447l-.05.4h.895l.4-2.734c0-1.144-.994-1.193-1.392-1.193m.746,2.138a1.628,1.628,0,0,1-1.193.945.388.388,0,0,1-.4-.4c0-.249.149-.6.895-.6A4.062,4.062,0,0,0,88.985,230.938Z" transform="translate(-81.925 -227.806)" fill="#dce5e5"/>
      <path id="Path_4498" data-name="Path 4498" d="M136,230.377a4.208,4.208,0,0,0,1.144.1,1.274,1.274,0,0,0,1.492-1.293c0-1.243-1.193-.994-1.193-1.492,0-.249.2-.348.547-.348.149,0,.7.05.7.05l.149-.895a3.775,3.775,0,0,0-.945-.1c-.746,0-.994.3-.994,1.293,0,1.143.746,1.044.746,1.492,0,.3-.348.348-.6.348" transform="translate(-128.443 -225.555)" fill="#dce5e5"/>
      <path id="Path_4499" data-name="Path 4499" d="M437.283,216.493a1.379,1.379,0,0,0-.945-.5c-.895,0-1.193,1.094-1.193,2.386,0,.8-.1,1.641.746,1.641a1.327,1.327,0,0,0,.945-.4l-.05.348h.994l.746-4.773m-1.293,2.585c0,.547-.447,1.243-.994,1.243-.348,0-.547-.3-.547-.8,0-.8.348-1.293.8-1.293A.76.76,0,0,1,437.234,217.785Z" transform="translate(-408.994 -215.051)" fill="#dce5e5"/>
      <path id="Path_4500" data-name="Path 4500" d="M15.345,219.173l.6-3.58.1,3.58h.7l1.293-3.58-.547,3.58h1.044l.8-4.773H18.079l-1.392,2.933-.05-2.933H16.09l-1.69,4.773Z" transform="translate(-14.4 -214.301)" fill="#dce5e5"/>
      <path id="Path_4501" data-name="Path 4501" d="M260.8,232.678h1.044c.3-1.641.348-2.983,1.044-2.735a3.9,3.9,0,0,1,.348-1.143h-.2c-.448,0-.8.6-.8.6l.1-.547" transform="translate(-245.487 -227.806)" fill="#dce5e5"/>
      <path id="Path_4502" data-name="Path 4502" d="M346.947,229.794a2.939,2.939,0,0,1,1.094-.2c.348,0,.646.05.646.348,0,.2-.05.249-.05.249h-.447c-.845,0-1.79.348-1.79,1.492,0,.895.6,1.094.945,1.094a1.494,1.494,0,0,0,1.044-.447l-.05.4h.895l.4-2.734c0-1.144-.994-1.193-1.392-1.193m.746,2.138a1.628,1.628,0,0,1-1.193.945.388.388,0,0,1-.4-.4c0-.249.149-.6.895-.6A4.375,4.375,0,0,0,348.985,230.938Z" transform="translate(-325.767 -227.806)" fill="#dce5e5"/>
      <path id="Path_4503" data-name="Path 4503" d="M395.2,232.678h1.044c.3-1.641.348-2.983,1.044-2.735a3.907,3.907,0,0,1,.348-1.143h-.2c-.448,0-.8.6-.8.6l.1-.547" transform="translate(-371.534 -227.806)" fill="#dce5e5"/>
    </g>
  </g>
</svg>
