<svg xmlns="http://www.w3.org/2000/svg" width="67.546" height="18.793" viewBox="0 0 67.546 18.793">
  <g id="paypal" transform="translate(0 0)">
    <path id="Path_4458" data-name="Path 4458" d="M341.786,200.349a18.559,18.559,0,0,0-4.09.663l-.332,2.543a14.479,14.479,0,0,1,3.427-.774c1.327,0,2.1.221,1.879,1.437-3.98,0-6.633.774-7.186,3.427-.774,4.422,4.09,4.533,5.97,2.543l-.221,1.216h3.538l1.548-7.186C346.871,201.233,344.218,200.238,341.786,200.349Zm.221,7.407c-.221.884-.995,1.216-1.879,1.327-.774,0-1.437-.442-.995-1.327.442-.663,1.437-.663,2.211-.663h.884C342.117,206.982,342.007,207.424,342.007,207.756Z" transform="translate(-289.053 -197.032)" fill="#32a6ce"/>
    <path id="Path_4459" data-name="Path 4459" d="M337.364,204.3a14.485,14.485,0,0,1,3.427-.774c1.327,0,2.1.221,1.879,1.437-3.98,0-6.633.774-7.186,3.427-.774,4.422,4.09,4.533,5.97,2.543l-.221,1.216h3.538l1.548-7.186c.663-2.985-2.1-3.759-4.533-3.759m.221,7.3c-.221.884-.995,1.216-1.879,1.327-.774,0-1.437-.442-.995-1.327.442-.663,1.437-.663,2.211-.663h.884C342.117,207.722,342.007,208.165,342.007,208.5Z" transform="translate(-289.053 -197.773)" fill="#1a80ad"/>
    <path id="Path_4460" data-name="Path 4460" d="M418.074,176.4,415.2,190.771h3.538l2.985-14.371Z" transform="translate(-357.825 -176.4)" fill="#32a6ce"/>
    <path id="Path_4461" data-name="Path 4461" d="M420.617,176.4,415.2,190.771h3.538l2.985-14.371h-1.106Z" transform="translate(-357.825 -176.4)" fill="#1a80ad"/>
    <path id="Path_4462" data-name="Path 4462" d="M258.2,176.4h-6.522L248.8,190.771h3.869l.995-4.422h2.764a5.254,5.254,0,0,0,5.417-4.311C262.4,178.832,260.076,176.4,258.2,176.4Zm-.111,4.975a2.256,2.256,0,0,1-2.211,1.658h-1.769l.774-3.316h1.879A1.251,1.251,0,0,1,258.086,181.375Z" transform="translate(-214.419 -176.4)" fill="#32a6ce"/>
    <path id="Path_4463" data-name="Path 4463" d="M257.507,176.4h-4.422L248,190.771h3.869l.995-4.422h2.764a5.254,5.254,0,0,0,5.417-4.311C261.708,178.832,259.387,176.4,257.507,176.4Zm-.111,4.975a2.257,2.257,0,0,1-2.211,1.658h-1.769l.774-3.316h1.879A1.251,1.251,0,0,1,257.4,181.375Z" transform="translate(-213.73 -176.4)" fill="#1a80ad"/>
    <path id="Path_4464" data-name="Path 4464" d="M93.554,200.349a16.431,16.431,0,0,0-3.98.663l-.332,2.543a13.218,13.218,0,0,1,3.427-.774c1.327,0,2.1.221,1.879,1.437-3.869,0-6.522.774-7.075,3.427-.774,4.422,3.98,4.533,5.859,2.543l-.221,1.216h3.538l1.548-7.186C98.75,201.233,95.986,200.238,93.554,200.349Zm.332,7.407c-.221.884-.995,1.216-1.879,1.327-.774,0-1.437-.442-.884-1.327.442-.663,1.437-.663,2.1-.663h.884C94,206.982,93.886,207.424,93.886,207.756Z" transform="translate(-75.313 -197.032)" fill="#21789e"/>
    <path id="Path_4465" data-name="Path 4465" d="M90.042,204.3a13.224,13.224,0,0,1,3.427-.774c1.327,0,2.1.221,1.879,1.437-3.869,0-6.522.774-7.075,3.427-.774,4.422,3.98,4.533,5.859,2.543l-.332,1.216h3.538l1.548-7.186c.663-2.985-2.1-3.759-4.533-3.759m.221,7.3c-.221.884-.995,1.216-1.879,1.327-.774,0-1.437-.442-.884-1.327.442-.663,1.437-.663,2.1-.663H94.8C94.686,207.722,94.575,208.165,94.575,208.5Z" transform="translate(-76.003 -197.773)" fill="#1a5b80"/>
    <path id="Path_4466" data-name="Path 4466" d="M169.105,200.4h3.538l.553,6.191,3.538-6.191h3.648l-8.4,15.477H168l2.543-4.643Z" transform="translate(-144.785 -197.084)" fill="#21789e"/>
    <path id="Path_4467" data-name="Path 4467" d="M172.643,200.621l.553,6.08,3.538-6.3h3.648l-8.4,15.477H168l2.543-4.533" transform="translate(-144.785 -197.084)" fill="#1a5b80"/>
    <path id="Path_4468" data-name="Path 4468" d="M9.507,176.4H2.874L0,190.771H3.869l.995-4.422H7.628a5.254,5.254,0,0,0,5.417-4.311C13.708,178.832,11.387,176.4,9.507,176.4ZM9.4,181.375a2.257,2.257,0,0,1-2.211,1.658H5.417l.774-3.316H8.07A1.251,1.251,0,0,1,9.4,181.375Z" transform="translate(0 -176.4)" fill="#21789e"/>
    <path id="Path_4469" data-name="Path 4469" d="M9.507,176.4H6.522L0,190.771H3.869l.995-4.422H7.628a5.254,5.254,0,0,0,5.417-4.311C13.708,178.832,11.387,176.4,9.507,176.4ZM9.4,181.375a2.257,2.257,0,0,1-2.211,1.658H5.417l.774-3.316H8.07A1.251,1.251,0,0,1,9.4,181.375Z" transform="translate(0 -176.4)" fill="#1a5b80"/>
    <g id="Group_910" data-name="Group 910" transform="translate(0.332 3.316)">
      <path id="Path_4470" data-name="Path 4470" d="M92.891,228.4c-2.985.221-4.975,1.105-5.417,3.316-.774,4.422,3.98,4.533,5.859,2.543l-.221,1.327h3.538l.553-2.653Zm.995,3.538c-.221.884-.995,1.216-1.879,1.327-.774,0-1.437-.442-.884-1.327.442-.663,1.437-.663,2.1-.663h.884C94,231.164,93.886,231.606,93.886,231.938Z" transform="translate(-75.645 -224.531)" fill="#06435e"/>
      <path id="Path_4471" data-name="Path 4471" d="M205.821,206.48l-.221.332,2.322,2.211,4.864-8.623h-3.648Z" transform="translate(-177.52 -200.4)" fill="#06435e"/>
      <path id="Path_4472" data-name="Path 4472" d="M5.938,252.822l.995-4.422L2.4,252.822Z" transform="translate(-2.4 -241.767)" fill="#06435e"/>
    </g>
    <g id="Group_911" data-name="Group 911" transform="translate(34.602 7.186)">
      <path id="Path_4473" data-name="Path 4473" d="M253.938,251.443l.995-4.643v.111l-4.533,4.533Z" transform="translate(-250.4 -244.257)" fill="#2273aa"/>
      <path id="Path_4474" data-name="Path 4474" d="M341.7,228.4c-2.985.221-4.975,1.105-5.417,3.316-.774,4.422,4.09,4.533,5.97,2.543l-.332,1.327h3.538l.553-2.653Zm.995,3.538c-.221.884-.995,1.216-1.879,1.327-.774,0-1.437-.442-.995-1.327.442-.663,1.437-.663,2.211-.663h.884C342.807,231.164,342.7,231.606,342.7,231.938Z" transform="translate(-324.345 -228.4)" fill="#2273aa"/>
      <path id="Path_4475" data-name="Path 4475" d="M417.743,233.2l-2.543,6.522h3.538l.995-4.422Z" transform="translate(-392.427 -232.537)" fill="#2273aa"/>
    </g>
    <g id="Group_912" data-name="Group 912" transform="translate(64.119 0.442)">
      <path id="Path_4476" data-name="Path 4476" d="M464.553,182.169v-1.548H464V180.4h1.437v.221h-.553v1.548Z" transform="translate(-464 -180.289)" fill="#32a6ce"/>
      <path id="Path_4477" data-name="Path 4477" d="M476,181.479v-1.769h.332l.442,1.216a.386.386,0,0,0,.111.221c0-.111,0-.111.111-.332l.442-1.216h.332v1.769h-.221v-1.548l-.553,1.548h-.332l-.553-1.548v1.548H476Z" transform="translate(-474.342 -179.6)" fill="#32a6ce"/>
    </g>
  </g>
</svg>
