<svg xmlns="http://www.w3.org/2000/svg" width="61.989" height="18.793" viewBox="0 0 61.989 18.793">
  <g id="visa" transform="translate(0 0)" style="isolation: isolate">
    <path id="Path_4504" data-name="Path 4504" d="M184.8,198.111l3.149-17.711h4.92l-3.05,17.711Z" transform="translate(-162.071 -179.81)" fill="#3c58bf"/>
    <path id="Path_4505" data-name="Path 4505" d="M184.8,198.111l4.034-17.711h4.034l-3.05,17.711Z" transform="translate(-162.071 -179.81)" fill="#293688"/>
    <path id="Path_4506" data-name="Path 4506" d="M263.054,176.387a12.48,12.48,0,0,0-4.526-.787c-4.92,0-8.462,2.46-8.462,6,0,2.657,2.46,4.034,4.428,4.92s2.558,1.476,2.558,2.263c0,1.181-1.574,1.771-2.952,1.771a10.694,10.694,0,0,1-4.723-.984l-.689-.3L248,193.311a15.954,15.954,0,0,0,5.609.984c5.215,0,8.659-2.46,8.659-6.2,0-2.066-1.279-3.641-4.231-4.92-1.771-.886-2.853-1.378-2.853-2.263,0-.787.886-1.574,2.853-1.574a9.024,9.024,0,0,1,3.739.689l.492.2.787-3.837Z" transform="translate(-217.497 -175.6)" fill="#3c58bf"/>
    <path id="Path_4507" data-name="Path 4507" d="M263.054,176.387a12.48,12.48,0,0,0-4.526-.787c-4.92,0-7.576,2.46-7.576,6,0,2.657,1.574,4.034,3.542,4.92s2.558,1.476,2.558,2.263c0,1.181-1.574,1.771-2.952,1.771a10.694,10.694,0,0,1-4.723-.984l-.689-.3L248,193.311a15.954,15.954,0,0,0,5.609.984c5.215,0,8.659-2.46,8.659-6.2,0-2.066-1.279-3.641-4.231-4.92-1.771-.886-2.853-1.378-2.853-2.263,0-.787.886-1.574,2.853-1.574a9.024,9.024,0,0,1,3.739.689l.492.2.787-3.837Z" transform="translate(-217.497 -175.6)" fill="#293688"/>
    <path id="Path_4508" data-name="Path 4508" d="M368.338,180.4c-1.181,0-2.066.1-2.558,1.279l-7.38,16.432h5.313l.984-2.952h6.3l.59,2.952h4.723L372.175,180.4Zm-2.263,11.807c.3-.886,1.968-5.215,1.968-5.215s.393-1.082.689-1.771l.3,1.673s.984,4.428,1.181,5.412h-4.133Z" transform="translate(-314.319 -179.81)" fill="#3c58bf"/>
    <path id="Path_4509" data-name="Path 4509" d="M369.519,180.4c-1.181,0-2.066.1-2.558,1.279l-8.56,16.432h5.313l.984-2.952h6.3l.59,2.952h4.723L372.175,180.4Zm-3.444,11.807c.394-.984,1.968-5.215,1.968-5.215s.393-1.082.689-1.771l.3,1.673s.984,4.428,1.181,5.412h-4.133Z" transform="translate(-314.319 -179.81)" fill="#293688"/>
    <path id="Path_4510" data-name="Path 4510" d="M58.58,193.5l-.492-2.558a14.263,14.263,0,0,0-6.888-7.773l4.428,15.743h5.313l7.97-17.711H63.6Z" transform="translate(-44.903 -180.511)" fill="#3c58bf"/>
    <path id="Path_4511" data-name="Path 4511" d="M58.58,193.5l-.492-2.558a14.263,14.263,0,0,0-6.888-7.773l4.428,15.743h5.313l7.97-17.711H64.582Z" transform="translate(-44.903 -180.511)" fill="#293688"/>
    <path id="Path_4512" data-name="Path 4512" d="M0,180.4l.886.2c6.3,1.476,10.627,5.215,12.3,9.643l-1.771-8.364c-.3-1.181-1.181-1.476-2.263-1.476Z" transform="translate(0 -179.81)" fill="#ffbc00"/>
    <path id="Path_4513" data-name="Path 4513" d="M0,180.4H0c6.3,1.476,11.512,5.313,13.185,9.741l-1.673-6.986a2.4,2.4,0,0,0-2.361-1.87Z" transform="translate(0 -179.81)" fill="#f7981d"/>
    <path id="Path_4514" data-name="Path 4514" d="M0,180.4H0c6.3,1.476,11.512,5.313,13.185,9.741L12,186.3c-.3-1.181-.689-2.361-2.066-2.853Z" transform="translate(0 -179.81)" fill="#ed7c00"/>
    <g id="Group_915" data-name="Group 915" transform="translate(6.396 2.558)">
      <path id="Path_4515" data-name="Path 4515" d="M64.2,206.24l-3.345-3.345-1.574,3.739-.394-2.46A14.264,14.264,0,0,0,52,196.4l4.428,15.743h5.313Z" transform="translate(-52 -196.4)" fill="#051244"/>
      <path id="Path_4516" data-name="Path 4516" d="M189.818,293.529l-4.231-4.329-.787,4.329Z" transform="translate(-168.466 -277.786)" fill="#051244"/>
      <path id="Path_4517" data-name="Path 4517" d="M256.56,274.8h0c.394.394.59.689.492,1.082,0,1.181-1.574,1.771-2.952,1.771a10.7,10.7,0,0,1-4.723-.984l-.689-.3L248,280.408a15.953,15.953,0,0,0,5.608.984c3.149,0,5.707-.886,7.183-2.46Z" transform="translate(-223.893 -265.157)" fill="#051244"/>
      <path id="Path_4518" data-name="Path 4518" d="M364,232.49h4.625l.984-2.952h6.3l.59,2.952h4.723l-1.673-7.183-5.9-5.707.3,1.574s.984,4.428,1.181,5.412h-4.133c.394-.984,1.968-5.215,1.968-5.215s.394-1.082.689-1.771" transform="translate(-325.626 -216.747)" fill="#051244"/>
    </g>
  </g>
</svg>
