<svg xmlns="http://www.w3.org/2000/svg" width="30.423" height="27.289" viewBox="0 0 30.423 27.289"><defs><style>.a{fill:#f4a00f;opacity:0.662;}.b,.c{fill:#727171;}.b{stroke:#707070;stroke-width:0.5px;}</style></defs><g transform="translate(0.25)"><circle class="a" cx="8.5" cy="8.5" r="8.5" transform="translate(13.173)"/><g transform="translate(0 4.676)"><g transform="translate(0 0)"><path class="b" d="M26.271,69.653h-.459V57.686a3.744,3.744,0,0,0,1.725-3.151.4.4,0,0,0-.053-.2l-3.2-5.6a1.269,1.269,0,0,0-1.1-.638H4.353a1.268,1.268,0,0,0-1.1.638l-3.2,5.6a.4.4,0,0,0-.053.2,3.744,3.744,0,0,0,1.725,3.151V69.653H1.266a.4.4,0,0,0,0,.807H26.271a.4.4,0,0,0,0-.807ZM.835,54.939H2.128a.4.4,0,0,0,0-.807H1.1l2.856-5a.46.46,0,0,1,.4-.231H23.184a.46.46,0,0,1,.4.231l2.856,5H25.409a.4.4,0,1,0,0,.807H26.7a2.938,2.938,0,0,1-5.82,0h2.8a.4.4,0,1,0,0-.807H3.853a.4.4,0,0,0,0,.807h2.8a2.938,2.938,0,0,1-5.82,0Zm19.185,0a2.937,2.937,0,0,1-5.819,0Zm-6.683,0a2.937,2.937,0,0,1-5.819,0ZM22.85,69.653H18.483V68.3H22.85Zm0-2.156H18.483V60.112H22.85Zm2.156,2.156H23.657V59.709a.4.4,0,0,0-.4-.4H18.08a.4.4,0,0,0-.4.4v9.944H2.531V58.077a3.741,3.741,0,0,0,4.555-1.852,3.744,3.744,0,0,0,6.683,0,3.744,3.744,0,0,0,6.683,0,3.741,3.741,0,0,0,4.555,1.852Z" transform="translate(0 -48.096)"/></g><g transform="translate(3.88 11.21)"><g transform="translate(0 0)"><path class="c" d="M84.189,256.516H72.548a.4.4,0,0,0-.4.4v8.192a.4.4,0,0,0,.4.4H84.189a.4.4,0,0,0,.4-.4v-8.192A.4.4,0,0,0,84.189,256.516Zm-.4,8.192H72.952v-7.385H83.786Z" transform="translate(-72.145 -256.516)"/></g></g></g></g></svg>