<?xml version="1.0" encoding="utf-8"?>
<!-- Generator: Adobe Illustrator 24.2.0, SVG Export Plug-In . SVG Version: 6.00 Build 0)  -->
<svg version="1.1" id="Layer_1" xmlns="http://www.w3.org/2000/svg" xmlns:xlink="http://www.w3.org/1999/xlink" x="0px" y="0px"
	 viewBox="0 0 512 512" style="enable-background:new 0 0 512 512;" xml:space="preserve">
<style type="text/css">
	.st0{fill:#F59E0C;}
</style>
<g>
	<g>
		<g>
			<path class="st0" d="M110.9,221.8c-4.7,0-8.5,3.8-8.5,8.5v51.2c0,4.7,3.8,8.5,8.5,8.5s8.5-3.8,8.5-8.5v-51.2
				C119.5,225.6,115.6,221.8,110.9,221.8z"/>
			<path class="st0" d="M111.9,2.3L31.2,34.6C8.4,43,0,54.4,0,76.7v358.5c0,22.3,8.4,33.7,31,42.1l81.1,32.4c4,1.5,8,2.3,12,2.3
				c17.2,0,29.6-14.3,29.6-34.1V34C153.6,9.8,134.2-6.1,111.9,2.3z M136.5,477.9c0,10.2-5,17-12.5,17c-1.9,0-3.9-0.4-5.8-1.1
				l-81.1-32.5c-16.1-6-20-11.1-20-26.1V76.7c0-15,3.9-20.2,20.2-26.2L118,18.2c2.1-0.8,4.1-1.2,6-1.2c7.5,0,12.5,6.8,12.5,17V477.9
				z"/>
			<path class="st0" d="M178.1,51.1h120.5c14.1,0,25.6,11.5,25.6,25.6v128c0,4.7,3.8,8.5,8.5,8.5s8.5-3.8,8.5-8.5v-128
				c0-23.5-19.1-42.7-42.7-42.7H178.1c-4.7,0-8.5,3.8-8.5,8.5S173.4,51.1,178.1,51.1z"/>
			<path class="st0" d="M332.8,298.6c-4.7,0-8.5,3.8-8.5,8.5v128c0,14.1-11.5,25.6-25.6,25.6H179.2c-4.7,0-8.5,3.8-8.5,8.5
				s3.8,8.5,8.5,8.5h119.5c23.5,0,42.7-19.1,42.7-42.7v-128C341.3,302.4,337.5,298.6,332.8,298.6z"/>
			<path class="st0" d="M511.3,252.7c-0.4-1.1-1.1-2-1.9-2.8l-85.3-85.3c-3.3-3.3-8.7-3.3-12.1,0c-3.3,3.3-3.3,8.7,0,12.1l70.8,70.8
				H196.3c-4.7,0-8.5,3.8-8.5,8.5s3.8,8.5,8.5,8.5h286.6l-70.8,70.8c-3.3,3.3-3.3,8.7,0,12.1c1.7,1.7,3.8,2.5,6,2.5
				c2.2,0,4.4-0.8,6-2.5l85.3-85.3c0.8-0.8,1.4-1.7,1.9-2.8C512.2,257.1,512.2,254.7,511.3,252.7z"/>
		</g>
	</g>
</g>
</svg>
