<?xml version="1.0" encoding="iso-8859-1"?>
<!-- Generator: Adobe Illustrator 24.2.0, SVG Export Plug-In . SVG Version: 6.00 Build 0)  -->
<svg version="1.1" id="Layer_1" xmlns="http://www.w3.org/2000/svg" xmlns:xlink="http://www.w3.org/1999/xlink" x="0px" y="0px"
	 viewBox="0 0 512 512.001" style="enable-background:new 0 0 512 512.001;" xml:space="preserve">
<path style="fill:#F59E0C;" d="M252.352,246.633c33.883,0,63.219-12.152,87.195-36.129c23.969-23.973,36.125-53.305,36.125-87.191
	c0-33.875-12.152-63.211-36.129-87.191C315.566,12.152,286.23,0,252.352,0c-33.887,0-63.219,12.152-87.191,36.125
	s-36.129,53.309-36.129,87.188c0,33.887,12.156,63.223,36.129,87.195C189.141,234.477,218.477,246.633,252.352,246.633z
	 M186.379,57.34c18.395-18.395,39.973-27.336,65.973-27.336c25.996,0,47.578,8.941,65.977,27.336
	c18.395,18.398,27.34,39.98,27.34,65.973c0,26-8.945,47.578-27.34,65.977c-18.398,18.398-39.98,27.34-65.977,27.34
	c-25.992,0-47.57-8.945-65.973-27.34c-18.398-18.395-27.344-39.977-27.344-65.977C159.035,97.32,167.98,75.738,186.379,57.34z"/>
<path style="fill:#F59E0C;" d="M468.129,393.703c-0.691-9.977-2.09-20.859-4.148-32.352c-2.078-11.578-4.754-22.523-7.957-32.527
	c-3.312-10.34-7.809-20.551-13.375-30.336c-5.77-10.156-12.551-19-20.16-26.277c-7.957-7.613-17.699-13.734-28.965-18.199
	c-11.227-4.441-23.668-6.691-36.977-6.691c-5.227,0-10.281,2.145-20.043,8.5c-6.008,3.918-13.035,8.449-20.879,13.461
	c-6.707,4.273-15.793,8.277-27.016,11.902c-10.949,3.543-22.066,5.34-33.043,5.34c-10.969,0-22.086-1.797-33.043-5.34
	c-11.211-3.621-20.301-7.625-26.996-11.898c-7.77-4.965-14.801-9.496-20.898-13.469c-9.754-6.355-14.809-8.5-20.035-8.5
	c-13.312,0-25.75,2.254-36.973,6.699c-11.258,4.457-21.004,10.578-28.969,18.199c-7.609,7.281-14.391,16.121-20.156,26.273
	c-5.559,9.785-10.059,19.992-13.371,30.34c-3.199,10.004-5.875,20.945-7.953,32.523c-2.062,11.477-3.457,22.363-4.148,32.363
	C42.344,403.492,42,413.668,42,423.949c0,26.727,8.496,48.363,25.25,64.32C83.797,504.016,105.688,512,132.316,512h246.531
	c26.621,0,48.512-7.984,65.062-23.73c16.758-15.945,25.254-37.59,25.254-64.324C469.16,413.629,468.812,403.453,468.129,393.703z
	 M423.223,466.531c-10.934,10.406-25.449,15.465-44.379,15.465H132.316c-18.934,0-33.449-5.059-44.379-15.461
	c-10.723-10.207-15.934-24.141-15.934-42.586c0-9.594,0.316-19.066,0.949-28.16c0.617-8.922,1.879-18.723,3.75-29.137
	c1.848-10.285,4.199-19.938,6.996-28.676c2.684-8.379,6.344-16.676,10.883-24.668c4.332-7.617,9.316-14.152,14.816-19.418
	c5.145-4.926,11.629-8.957,19.27-11.98c7.066-2.797,15.008-4.328,23.629-4.559c1.051,0.559,2.922,1.625,5.953,3.602
	c6.168,4.02,13.277,8.605,21.137,13.625c8.859,5.648,20.273,10.75,33.91,15.152c13.941,4.508,28.16,6.797,42.273,6.797
	s28.336-2.289,42.27-6.793c13.648-4.41,25.059-9.508,33.93-15.164c8.043-5.141,14.953-9.594,21.121-13.617
	c3.031-1.973,4.902-3.043,5.953-3.602c8.625,0.23,16.566,1.762,23.637,4.559c7.637,3.023,14.121,7.059,19.266,11.98
	c5.5,5.262,10.484,11.797,14.816,19.422c4.543,7.988,8.207,16.289,10.887,24.66c2.801,8.75,5.156,18.398,7,28.676
	c1.867,10.434,3.133,20.238,3.75,29.145v0.008c0.637,9.059,0.957,18.527,0.961,28.148
	C439.156,442.398,433.945,456.328,423.223,466.531z"/>
</svg>
