<svg xmlns="http://www.w3.org/2000/svg" width="126.348" height="144.588" viewBox="0 0 126.348 144.588"><g transform="translate(-2706.556 -2062.141)"><path d="M4217.278,618.576a4.423,4.423,0,0,0,4.42-4.406v-127.6a11,11,0,0,0-10.994-10.993H4106.927a11.589,11.589,0,0,0-11.576,11.578v65.393a2.358,2.358,0,0,0,3.424,2.12l12.156-6.077a2.153,2.153,0,0,1,.984-.233,2.2,2.2,0,0,1,2.2,2.2V614.17a4.423,4.423,0,0,0,4.418,4.406,4.341,4.341,0,0,0,2.564-.853l6.818-4.96a2.213,2.213,0,0,1,2.588,0l9.018,6.561a4.408,4.408,0,0,0,5.176,0l9.02-6.561a2.207,2.207,0,0,1,2.584,0l9.021,6.561a4.4,4.4,0,0,0,5.17,0l9.018-6.561a2.219,2.219,0,0,1,2.592,0l9.018,6.561a4.4,4.4,0,0,0,5.172,0l9.02-6.561a2.207,2.207,0,0,1,2.584,0l6.822,4.96A4.335,4.335,0,0,0,4217.278,618.576Zm-103.164-77.854a2.2,2.2,0,0,1-1.221,1.966l-9.961,4.982a2.2,2.2,0,0,1-3.186-1.966v-58.55a7.184,7.184,0,0,1,14.367,0Zm95.072,67.547a4.379,4.379,0,0,0-5.17,0L4195,614.825a2.205,2.205,0,0,1-1.295.422,2.178,2.178,0,0,1-1.293-.422l-9.018-6.556a4.39,4.39,0,0,0-5.178,0l-9.018,6.556a2.188,2.188,0,0,1-2.584,0l-9.021-6.556a4.379,4.379,0,0,0-5.17,0l-9.023,6.556a2.191,2.191,0,0,1-2.586,0l-9.018-6.556a4.382,4.382,0,0,0-5.172,0l-4.621,3.36a2.217,2.217,0,0,1-1.293.422,2.151,2.151,0,0,1-1-.242,2.191,2.191,0,0,1-1.2-1.957v-122.7a11.471,11.471,0,0,0-.783-4.186,2.2,2.2,0,0,1,2.049-2.994H4210.7a6.6,6.6,0,0,1,6.6,6.6V609.852a2.19,2.19,0,0,1-1.2,1.957,2.162,2.162,0,0,1-1,.242,2.217,2.217,0,0,1-1.293-.422Z" transform="translate(-1388.795 1586.566)"/><rect width="14.365" height="4.983" transform="translate(2753.168 2089.988)"/><rect width="14.365" height="4.984" transform="translate(2753.168 2108.75)"/><rect width="28.436" height="4.984" transform="translate(2781.311 2127.512)"/><rect width="28.436" height="4.984" transform="translate(2781.311 2146.273)"/><rect width="14.365" height="4.984" transform="translate(2753.168 2127.512)"/><rect width="14.365" height="4.984" transform="translate(2753.168 2146.273)"/><rect width="28.436" height="4.984" transform="translate(2781.311 2108.75)"/><rect width="14.365" height="4.984" transform="translate(2795.383 2165.037)"/></g></svg>