<svg xmlns="http://www.w3.org/2000/svg" width="123.236" height="169" viewBox="0 0 123.236 169">
  <g id="Group_5462" data-name="Group 5462" transform="translate(-81.061 -17.01)">
    <path id="Path_12044" data-name="Path 12044" d="M271.8,347.5l.077-1.407-7.486-.414h0q-.254-.013-.507-.013a9.824,9.824,0,0,0-5.4,1.617h0l-6.19,4.087,0,0a10.357,10.357,0,0,1-7.723,1.541l-3.2-.625L269.4,396.911l8.621-21.829,0,0a.344.344,0,0,1,.319-.219h.028l23.412,1.708L280.437,342.59l-1.239,1.047a10.454,10.454,0,0,1-6.748,2.47q-.286,0-.574-.016L271.8,347.5l-.077,1.406q.365.02.728.02a13.272,13.272,0,0,0,8.567-3.136l-.909-1.076-1.193.75,17.521,27.889-17.856-1.3h0q-.122-.009-.242-.009a3.162,3.162,0,0,0-2.944,2.011l0,0L268.824,390.7l-23.339-37.151-1.193.749-.271,1.383a13.174,13.174,0,0,0,9.825-1.961l0,0,6.189-4.086h0a7.006,7.006,0,0,1,3.851-1.153q.181,0,.362.009h0l7.484.413Z" transform="translate(-103.842 -210.901)" fill="#020202"/>
    <path id="Path_12045" data-name="Path 12045" d="M197.426,67.914l1.179-.772a10.589,10.589,0,0,1-1.731-5.8c0-.186,0-.372.015-.558v0l.412-7.494c.01-.18.015-.359.015-.538a9.8,9.8,0,0,0-5.374-8.738l-6.633-3.356h0a10.41,10.41,0,0,1-4.625-4.63l-3.353-6.646a9.78,9.78,0,0,0-8.73-5.375q-.264,0-.529.014h0l-7.483.412h0q-.273.014-.545.014a10.57,10.57,0,0,1-5.805-1.737l-6.184-4.084h0a9.753,9.753,0,0,0-10.757,0h0l-6.188,4.086h0a10.532,10.532,0,0,1-5.793,1.736q-.276,0-.553-.014h0l-7.485-.412h0c-.178-.01-.356-.015-.533-.014a9.776,9.776,0,0,0-8.727,5.375h0l-3.354,6.644h0a10.409,10.409,0,0,1-4.624,4.631h0l-6.633,3.356h0a9.8,9.8,0,0,0-5.368,8.735q0,.27.015.542l.412,7.494v0c.01.186.015.372.015.558a10.588,10.588,0,0,1-1.731,5.8v0l-4.08,6.2h0a9.794,9.794,0,0,0,0,10.779h0l4.08,6.2,0,0a10.588,10.588,0,0,1,1.731,5.8q0,.279-.015.558v0l-.412,7.495q-.015.271-.015.54a9.8,9.8,0,0,0,5.368,8.737h0l6.632,3.354h0a10.415,10.415,0,0,1,4.625,4.632v0l3.351,6.643h0a9.785,9.785,0,0,0,8.732,5.375c.175,0,.352,0,.528-.014l7.485-.413h0c.178-.01.356-.015.534-.015h.017a10.556,10.556,0,0,1,5.793,1.738l6.185,4.084h0a9.749,9.749,0,0,0,10.763,0h0l6.188-4.086,0,0a10.562,10.562,0,0,1,5.8-1.737q.272,0,.545.014h0l7.486.414h0q.266.014.53.014a9.78,9.78,0,0,0,8.729-5.375l3.351-6.644v0a10.41,10.41,0,0,1,4.625-4.631h0l6.633-3.355h0a9.8,9.8,0,0,0,5.367-8.736q0-.269-.015-.54l-.412-7.5v0q-.015-.279-.015-.558a10.583,10.583,0,0,1,1.731-5.8l0,0,4.08-6.2h0a9.795,9.795,0,0,0,0-10.779L198.6,67.13l.008.012-1.179.772-1.177.774,4.078,6.2h0a6.977,6.977,0,0,1,0,7.678h0l-4.08,6.2,0,0a13.4,13.4,0,0,0-2.192,7.345q0,.353.019.707l.412,7.5c.007.129.011.257.011.385a6.979,6.979,0,0,1-3.823,6.222l-6.632,3.354h0a13.227,13.227,0,0,0-5.877,5.885v0l-3.351,6.643a6.961,6.961,0,0,1-6.213,3.826q-.189,0-.378-.01h0l-7.487-.414h0q-.346-.017-.69-.018a13.381,13.381,0,0,0-7.35,2.2l-6.19,4.087h0a6.931,6.931,0,0,1-7.652,0l-6.188-4.087h0a13.377,13.377,0,0,0-7.34-2.2H125.3q-.347,0-.691.019h0l-7.483.413h0q-.189.01-.377.01a6.967,6.967,0,0,1-6.217-3.827h0l-3.351-6.643v0a13.23,13.23,0,0,0-5.877-5.885l-6.63-3.353h0a6.98,6.98,0,0,1-3.824-6.224q0-.192.011-.385l.412-7.5v0q.019-.354.019-.707a13.405,13.405,0,0,0-2.192-7.345l0,0-4.08-6.2h0a6.977,6.977,0,0,1,0-7.678h0l4.08-6.2h0A13.407,13.407,0,0,0,91.3,61.342c0-.235-.006-.471-.019-.707l-.412-7.5q-.011-.194-.011-.387a6.978,6.978,0,0,1,3.824-6.222l6.632-3.356h0a13.229,13.229,0,0,0,5.876-5.885v0l3.353-6.642h0a6.958,6.958,0,0,1,6.211-3.826q.189,0,.38.011h.016l7.476.412h0q.351.018.7.018a13.348,13.348,0,0,0,7.343-2.2l6.189-4.087h0a6.936,6.936,0,0,1,7.649,0h0l6.187,4.086h0a13.386,13.386,0,0,0,7.353,2.2q.344,0,.69-.018h0l7.5-.413h-.013q.189-.01.377-.01a6.962,6.962,0,0,1,6.214,3.827l3.352,6.644v0a13.227,13.227,0,0,0,5.877,5.883l6.63,3.354a6.977,6.977,0,0,1,3.828,6.224q0,.191-.011.383l-.412,7.494v0q-.019.354-.019.707a13.408,13.408,0,0,0,2.191,7.345l0,0ZM142.68,123.345v-1.409a43.233,43.233,0,1,1,30.495-12.671,42.978,42.978,0,0,1-30.495,12.671v2.818a46.048,46.048,0,1,0-32.489-13.5,45.8,45.8,0,0,0,32.489,13.5Z" fill="#020202"/>
    <path id="Path_12047" data-name="Path 12047" d="M141.637,348.461l.775-1.177a9.812,9.812,0,0,0-5.4-1.617q-.257,0-.514.013h0l-7.483.414h0q-.284.015-.567.016a10.469,10.469,0,0,1-6.755-2.471l-1.239-1.046L99.108,376.568l23.409-1.708h.03a.345.345,0,0,1,.32.219l8.623,21.833,22.466-35.755-6.713-10.683-4.829-3.189h0l-.775,1.177-.776,1.176,4.32,2.853,5.447,8.668L132.065,390.7l-6.576-16.651v0a3.163,3.163,0,0,0-2.944-2.011q-.12,0-.241.009h0l-17.854,1.3,17.522-27.89-1.193-.75-.909,1.076a13.288,13.288,0,0,0,8.573,3.136q.359,0,.719-.019h0l7.479-.413h0q.183-.01.366-.01a6.994,6.994,0,0,1,3.847,1.153h0Z" transform="translate(-11.69 -210.902)" fill="#020202"/>
    <path id="Path_12054" data-name="Path 12054" d="M183.23,93.572c.6-.121,1.207-.229,1.816-.319a1.761,1.761,0,0,1,.52,3.484c-.548.082-1.1.179-1.636.288a1.818,1.818,0,0,1-.352.035,1.761,1.761,0,0,1-.348-3.487Zm-25.051,34.985a1.761,1.761,0,1,1-3.522,0A35.658,35.658,0,0,1,176.386,95.7a1.761,1.761,0,1,1,1.431,3.219l-.051.022A32.141,32.141,0,0,0,158.179,128.557Zm56.04-6.007-10.657,10.4,2.515,14.688a1.761,1.761,0,0,1-2.556,1.855l-13.167-6.933-13.168,6.933a1.761,1.761,0,0,1-2.556-1.855l2.516-14.688-10.655-10.4a1.761,1.761,0,0,1,.977-3l14.723-2.143,6.587-13.362a1.761,1.761,0,0,1,3.16,0l6.585,13.362,14.723,2.143a1.761,1.761,0,0,1,.977,3Z" transform="translate(-47.673 -49.376)" fill="none" stroke="#000" strokeWidth="3"/>
  </g>
</svg>
