<svg xmlns="http://www.w3.org/2000/svg" width="145.111" height="145.111" viewBox="0 0 145.111 145.111"><g transform="translate(-546.886 -2369.691)"><rect width="9.22" height="4.681" transform="translate(637.527 2440.342)"/><path d="M3738.336,595.446H3656.2a2.2,2.2,0,0,1-2.2-2.2v-4.824a2.2,2.2,0,0,1,2.2-2.2h9.361a6.6,6.6,0,0,0,6.6-6.6V552.111a6.6,6.6,0,0,0-6.6-6.6h-54.751a6.6,6.6,0,0,0-6.6,6.6V579.63a6.6,6.6,0,0,0,6.6,6.6h9.361a2.2,2.2,0,0,1,2.2,2.2v4.824a2.2,2.2,0,0,1-2.2,2.2h-4.964a11.005,11.005,0,0,0-10.993,10.993v77.591a6.6,6.6,0,0,0,6.6,6.6h131.92a6.6,6.6,0,0,0,6.6-6.6V606.44A11.009,11.009,0,0,0,3738.336,595.446Zm-127.522-13.618a2.2,2.2,0,0,1-2.2-2.2V552.111a2.2,2.2,0,0,1,2.2-2.2h54.751a2.2,2.2,0,0,1,2.2,2.2V579.63a2.2,2.2,0,0,1-2.2,2.2Zm38.793,6.6v4.824a2.2,2.2,0,0,1-2.2,2.2H3628.97a2.2,2.2,0,0,1-2.2-2.2v-4.824a2.2,2.2,0,0,1,2.2-2.2h18.438A2.2,2.2,0,0,1,3649.606,588.424Zm95.325,95.607a2.2,2.2,0,0,1-2.2,2.2h-131.92a2.2,2.2,0,0,1-2.2-2.2V661.054a2.2,2.2,0,0,1,2.2-2.2h131.92a2.2,2.2,0,0,1,2.2,2.2Zm0-31.771a2.2,2.2,0,0,1-2.2,2.2h-131.92a2.2,2.2,0,0,1-2.2-2.2V606.44a6.6,6.6,0,0,1,6.6-6.6h123.125a6.6,6.6,0,0,1,6.6,6.6Z" transform="translate(-3057.332 1824.176)"/><rect width="9.22" height="4.681" transform="translate(614.832 2440.342)"/><rect width="9.22" height="4.681" transform="translate(660.223 2440.342)"/><path d="M3621.182,582.353h22.693a4.621,4.621,0,0,0,4.613-4.613v-4.608H3643.8v2.339a2.2,2.2,0,0,1-2.2,2.2H3623.45a2.2,2.2,0,0,1-2.2-2.2v-2.339h-4.679v4.608A4.617,4.617,0,0,0,3621.182,582.353Z" transform="translate(-3015.357 1917.998)"/><rect width="9.22" height="4.681" transform="translate(660.223 2456.156)"/><rect width="31.916" height="4.681" transform="translate(564.9 2387.707)"/><rect width="9.22" height="4.681" transform="translate(614.832 2456.156)"/><rect width="9.22" height="4.681" transform="translate(637.527 2456.156)"/></g></svg>