<svg id="Group_5462" data-name="Group 5462" xmlns="http://www.w3.org/2000/svg" width="33.85" height="45.981" viewBox="0 0 33.85 45.981">
  <circle id="Ellipse_394" data-name="Ellipse 394" cx="11" cy="11" r="11" transform="translate(11.85)" fill="#f4a00f" opacity="0.662"/>
  <g id="Group_5021" data-name="Group 5021" transform="translate(0 6.767)">
    <path id="Path_11615" data-name="Path 11615" d="M846.821,391.77a6.769,6.769,0,0,1-1.165-.39,3.126,3.126,0,0,0-2.955,0,2.976,2.976,0,0,1-4.052-1.065,3.132,3.132,0,0,0-2.6-1.5,3,3,0,0,1-2.732-1.893,2.047,2.047,0,0,1-.157-.818,2.762,2.762,0,0,0-1.44-2.751,2.987,2.987,0,0,1-1.469-2.28,2.719,2.719,0,0,1,.287-1.944,2.994,2.994,0,0,0,0-2.856,2.987,2.987,0,0,1,1.108-4.127,3.176,3.176,0,0,0,1.456-2.684,2.852,2.852,0,0,1,1.652-2.495,2.917,2.917,0,0,1,1.218-.326,3.144,3.144,0,0,0,2.719-1.588,2.888,2.888,0,0,1,2.83-1.345,3.154,3.154,0,0,1,1.16.343,2.964,2.964,0,0,0,2.953,0,3.139,3.139,0,0,1,4.146,1.129,2.907,2.907,0,0,0,2.461,1.437,2.978,2.978,0,0,1,3.027,3.01,3.212,3.212,0,0,0,1.5,2.549,2.962,2.962,0,0,1,1.092,4,3.245,3.245,0,0,0,.025,3.1,2.888,2.888,0,0,1-.265,3.169,4.744,4.744,0,0,1-1.187,1.043,2.481,2.481,0,0,0-1.076,1.754c-.048.316-.077.634-.115.951a3.072,3.072,0,0,1-2.5,2.561,2.634,2.634,0,0,1-.369.048,3.043,3.043,0,0,0-2.714,1.585A3.125,3.125,0,0,1,846.821,391.77Zm-2.622-3.957a10.1,10.1,0,1,0-10.132-10.1A10.05,10.05,0,0,0,844.2,387.813Z" transform="translate(-830.136 -363.689)" fill="#727171"/>
    <path id="Path_11616" data-name="Path 11616" d="M971.536,616.27a4.646,4.646,0,0,0,3.94-1.943,4.4,4.4,0,0,1,1.035-.929c.2-.148.377-.028.463.239.963,2.991,1.943,5.977,2.9,8.971a2.107,2.107,0,0,1-.052.748,2.318,2.318,0,0,1-.707-.091c-1.283-.609-2.552-1.246-3.826-1.874-.627-.309-.684-.29-1.019.344q-.908,1.719-1.813,3.44a2.267,2.267,0,0,1-.263.461c-.122.137-.314.34-.439.316a.68.68,0,0,1-.426-.4q-.851-2.523-1.644-5.066a1.126,1.126,0,0,1,.064-.614c.31-1,.649-1.992.953-2.995C970.836,616.417,970.953,615.989,971.536,616.27Z" transform="translate(-954.794 -586.74)" fill="#727171"/>
    <path id="Path_11617" data-name="Path 11617" d="M872.743,615.755c-.107.342-.21.678-.318,1.012q-1.167,3.592-2.337,7.183a4.981,4.981,0,0,1-.2.551c-.234.506-.526.526-.847.058a5.052,5.052,0,0,1-.286-.51c-.611-1.161-1.233-2.318-1.823-3.489-.225-.446-.479-.54-.929-.309-1.182.609-2.38,1.187-3.572,1.776a1.853,1.853,0,0,1-.433.2c-.2.038-.5.1-.586.008a.783.783,0,0,1-.088-.627c.2-.717.45-1.419.679-2.128q.91-2.809,1.818-5.618c.172-.532.424-.64.876-.3a3.3,3.3,0,0,1,.663.751,4.385,4.385,0,0,0,4.543,1.886,7.024,7.024,0,0,0,1.544-.555A1.254,1.254,0,0,1,872.743,615.755Z" transform="translate(-857.981 -586.768)" fill="#727171"/>
    <path id="Path_11618" data-name="Path 11618" d="M903.894,454.024l4.793-4.848c.162-.164.321-.332.491-.488a1.775,1.775,0,0,1,2.5.017,1.8,1.8,0,0,1,.008,2.545c-.862.9-1.753,1.763-2.632,2.641-1.243,1.243-2.482,2.489-3.731,3.727a1.985,1.985,0,0,1-2.89-.014q-1.549-1.54-3.086-3.091a1.831,1.831,0,0,1-.082-2.659,1.812,1.812,0,0,1,2.616.12C902.533,452.622,903.171,453.287,903.894,454.024Z" transform="translate(-891.423 -439.182)" fill="#727171"/>
  </g>
</svg>
