<svg id="Group_5464" data-name="Group 5464" xmlns="http://www.w3.org/2000/svg" width="29.809" height="38.821" viewBox="0 0 29.809 38.821">
  <circle id="Ellipse_395" data-name="Ellipse 395" cx="11" cy="11" r="11" fill="#f4a00f" opacity="0.662"/>
  <g id="Group_5023" data-name="Group 5023" transform="translate(5.873 11)">
    <path id="Path_10" data-name="Path 10" d="M849.471,427.4c1.008-.1,1.978-.143,2.932-.293a19.07,19.07,0,0,0,7.835-3.335c.235-.161.4-.3.719-.079a18.18,18.18,0,0,0,10.607,3.641,2.175,2.175,0,0,1,.28.045c0,.2,0,.4,0,.6,0,3.177-.058,6.355.026,9.53A10.082,10.082,0,0,1,869.73,444a16.694,16.694,0,0,1-6.462,5.281,5.928,5.928,0,0,1-5.323-.042,15.464,15.464,0,0,1-7.922-8.045,7.478,7.478,0,0,1-.548-2.678c-.062-3.61-.027-7.221-.026-10.832C849.448,427.6,849.461,427.517,849.471,427.4Z" transform="translate(-849.437 -423.582)" fill="none" stroke="#707070" strokeWidth="3" opacity="0.998"/>
    <path id="Path_11619" data-name="Path 11619" d="M853.688,434.576c1.142,1.355,2.259,2.679,3.374,4,.67.8,1.291.766,1.872-.1q2.448-3.652,4.891-7.306c.092-.138.175-.281.277-.445l-1.569-1.05-4.636,6.931-2.762-3.263Z" transform="translate(-846.92 -421.404)" fill="#727171" opacity="0.998"/>
  </g>
</svg>
