<svg id="Group_5463" data-name="Group 5463" xmlns="http://www.w3.org/2000/svg" width="26.561" height="35" viewBox="0 0 26.561 35">
  <circle id="Ellipse_395" data-name="Ellipse 395" cx="9.495" cy="9.495" r="9.495" fill="#f4a00f" opacity="0.662"/>
  <g id="Group_5401" data-name="Group 5401" transform="translate(3.497 6.166)">
    <path id="Path_11874" data-name="Path 11874" d="M4248.25,964.515l-.062.01-11.12,1.7-.35.053V976.46a17.21,17.21,0,0,0,6.445,13.742c1.187.927,2.189,1.656,2.976,2.17a11.762,11.762,0,0,0,1.175.689,1.668,1.668,0,0,0,1.872,0,11.388,11.388,0,0,0,1.174-.689c.788-.514,1.79-1.244,2.978-2.17a17.208,17.208,0,0,0,6.444-13.742V966.275l-.35-.053-11.12-1.7Zm10.708,2.822v9.123a16.389,16.389,0,0,1-6.128,13.092c-1.169.913-2.151,1.629-2.919,2.131a10.838,10.838,0,0,1-1.088.639,2.613,2.613,0,0,1-.454.184.454.454,0,0,1-.12.017.4.4,0,0,1-.109-.014l-.006,0a2.656,2.656,0,0,1-.456-.185,10.787,10.787,0,0,1-1.087-.639c-.769-.5-1.752-1.218-2.921-2.131a16.388,16.388,0,0,1-6.128-13.092v-9.123a.414.414,0,0,1,.35-.408l10.3-1.572a.5.5,0,0,1,.063,0,.509.509,0,0,1,.062,0l10.3,1.572A.414.414,0,0,1,4258.958,967.337Z" transform="translate(-4236.718 -964.515)"/>
    <path id="Path_11875" data-name="Path 11875" d="M4245.57,987.834l3.14,2.316.245.18.245-.18,3.141-2.316a11.993,11.993,0,0,0,4.852-9.611v-7.961l-.35-.053-7.826-1.184-.062-.01-.062.01-7.825,1.184-.351.053v7.961A11.988,11.988,0,0,0,4245.57,987.834Zm-4.029-16.51a.411.411,0,0,1,.35-.407l7-1.059a.476.476,0,0,1,.124,0l7,1.059a.411.411,0,0,1,.35.407v6.9a11.163,11.163,0,0,1-4.518,8.948l-2.651,1.956a.414.414,0,0,1-.245.08.41.41,0,0,1-.245-.08l-2.652-1.956a11.164,11.164,0,0,1-4.517-8.948Z" transform="translate(-4237.422 -965.308)"/>
  </g>
</svg>
