<?xml version="1.0" encoding="utf-8"?>
<!-- Generator: Adobe Illustrator 24.2.0, SVG Export Plug-In . SVG Version: 6.00 Build 0)  -->
<svg version="1.1" id="Layer_1" xmlns="http://www.w3.org/2000/svg" xmlns:xlink="http://www.w3.org/1999/xlink" x="0px" y="0px"
	 viewBox="0 0 64 64" style="enable-background:new 0 0 64 64;" xml:space="preserve">
<style type="text/css">
	.st0{fill:#FFFFFF;}
</style>
<g id="Bell">
	<path d="M46.7,8.7c-0.6,0-1,0.4-1,1c0,0.6,0.4,1,1,1c3.5,0,6.4,2.9,6.4,6.4c0,0.6,0.4,1,1,1c0.6,0,1-0.4,1-1
		C55,12.4,51.3,8.7,46.7,8.7z"/>
	<path d="M9,17c0,0.6,0.4,1,1,1c0.6,0,1-0.4,1-1c0-3.5,2.9-6.4,6.4-6.4c0.6,0,1-0.4,1-1c0-0.6-0.4-1-1-1C12.7,8.7,9,12.4,9,17z"/>
	<path d="M48.1,1.3c-0.6,0-1,0.4-1,1s0.4,1,1,1c6.8,0,12.3,5.5,12.3,12.3c0,0.6,0.4,1,1,1s1-0.4,1-1C62.4,7.7,56,1.3,48.1,1.3z"/>
	<path d="M16.9,2.3c0-0.6-0.4-1-1-1C8,1.3,1.6,7.7,1.6,15.6c0,0.6,0.4,1,1,1s1-0.4,1-1c0-6.8,5.5-12.3,12.3-12.3
		C16.4,3.3,16.9,2.8,16.9,2.3z"/>
	<g>
		<path d="M33.8,7L33.8,7C33.8,7,33.8,7.1,33.8,7L33.8,7z"/>
		<path d="M49.1,44.7c0-0.4,0-0.9,0-1.3c0-12.4-5.1-23.6-12.3-27.3l-1.4-0.7l0.4-1.6c0.1-0.3,0.1-0.7,0.1-1c0-2.2-1.8-4.1-4.1-4.1
			s-4.1,1.8-4.1,4.1c0,0.3,0,0.6,0.1,1l0.4,1.6l-1.4,0.7C19.5,19.8,14.5,31,14.5,43.4c0,0.4,0,0.8,0,1.3H49.1z"/>
		<path d="M52.8,55.5l-2.9-8.7c0-0.1-0.1-0.1-0.2-0.1H13.9c-0.1,0-0.1,0-0.2,0.1l-2.9,8.7c0,0,0,0.1,0,0.1c0.1,0.1,0.1,0.1,0.1,0.1
			h13.8h14h13.8c0,0,0.1,0,0.1-0.1C52.8,55.6,52.8,55.5,52.8,55.5z"/>
		<polygon points="9.2,56.8 9.2,56.8 9.2,56.8 		"/>
		<polygon points="54.4,54 54.4,54 54.4,54 		"/>
		<polygon points="29.2,7.3 29.2,7.3 29.2,7.3 		"/>
		<path class="st0" d="M31.8,6.7c-0.9,0-1.8,0.2-2.6,0.6L33.8,7C33.1,6.8,32.5,6.7,31.8,6.7z"/>
		<path class="st0" d="M22.4,18l4.1-2.9v-1.8l0.7-3.6l2-2.4c-2.1,1-3.5,3.1-3.5,5.5c0,0.5,0.1,1,0.2,1.5c-7.8,4-13.4,15.5-13.4,29.1
			c0,0.6,0,1.2,0,1.8c-0.3,0.2-0.5,0.6-0.7,0.9l-2.9,8.7c-0.2,0.7-0.1,1.4,0.3,2l4.4-11.4C12.1,28.8,22.4,18,22.4,18z"/>
	</g>
</g>
<path d="M31.8,60.7c-2,0-3.8-1.2-4.6-3h9.2C35.6,59.5,33.9,60.7,31.8,60.7z"/>
</svg>
