<svg xmlns="http://www.w3.org/2000/svg" width="166.243" height="173" viewBox="0 0 166.243 173">
  <g id="Group_5459" data-name="Group 5459" transform="translate(-8.318 2.002)">
    <g id="Group_5453" data-name="Group 5453" transform="translate(10.359 -0.002)">
      <g id="Group_5452" data-name="Group 5452" transform="translate(0 0)">
        <path id="Path_12041" data-name="Path 12041" d="M164.7,86.687a4.953,4.953,0,0,1,0-4.378L171,69.415a14.671,14.671,0,0,0-6.33-19.482L152,43.206a4.953,4.953,0,0,1-2.573-3.541l-2.48-14.137a14.672,14.672,0,0,0-16.572-12.041L116.16,15.5A4.953,4.953,0,0,1,112,14.144L101.682,4.166a14.67,14.67,0,0,0-20.485,0l-10.315,9.98A4.954,4.954,0,0,1,66.719,15.5l-14.211-2.01A14.67,14.67,0,0,0,35.935,25.529l-2.48,14.136a4.954,4.954,0,0,1-2.573,3.542L18.2,49.934a14.671,14.671,0,0,0-6.33,19.482l6.3,12.894a4.953,4.953,0,0,1,0,4.378l-6.3,12.894a14.671,14.671,0,0,0,6.33,19.482l12.678,6.727a4.953,4.953,0,0,1,2.573,3.541l2.48,14.137A14.662,14.662,0,0,0,50.4,155.659a15.075,15.075,0,0,0,2.111-.149l14.211-2.01a4.951,4.951,0,0,1,4.163,1.353L81.2,164.831a14.67,14.67,0,0,0,20.484,0L112,154.852a4.958,4.958,0,0,1,4.163-1.353l14.211,2.01a14.669,14.669,0,0,0,16.572-12.041l2.48-14.136A4.954,4.954,0,0,1,152,125.791l12.678-6.727A14.671,14.671,0,0,0,171,99.582ZM71.945,40.636a17.87,17.87,0,1,1-17.87,17.87A17.89,17.89,0,0,1,71.945,40.636Zm-9.224,79.472a4.873,4.873,0,0,1-6.892-6.892l64.328-64.328a4.874,4.874,0,0,1,6.892,6.892Zm48.212,8.253a17.87,17.87,0,1,1,17.87-17.87A17.89,17.89,0,0,1,110.933,128.361Z" transform="translate(-10.359 0.002)" fill="none" stroke="#000" strokeWidth="4"/>
      </g>
    </g>
    <g id="Group_5455" data-name="Group 5455" transform="translate(102.811 102.368)">
      <g id="Group_5454" data-name="Group 5454">
        <path id="Path_12042" data-name="Path 12042" d="M298.575,310.141a8.122,8.122,0,1,0,8.122,8.122A8.132,8.132,0,0,0,298.575,310.141Z" transform="translate(-290.452 -310.141)" fill="none" stroke="#000" strokeWidth="4"/>
      </g>
    </g>
    <g id="Group_5457" data-name="Group 5457" transform="translate(63.823 50.383)">
      <g id="Group_5456" data-name="Group 5456">
        <path id="Path_12043" data-name="Path 12043" d="M180.455,152.646a8.123,8.123,0,1,0,8.123,8.122A8.132,8.132,0,0,0,180.455,152.646Z" transform="translate(-172.333 -152.646)" fill="none" stroke="#000" strokeWidth="4"/>
      </g>
    </g>
  </g>
</svg>
