<svg xmlns="http://www.w3.org/2000/svg" width="133.613" height="153.906" viewBox="0 0 133.613 153.906"><g transform="translate(-1792.678 -826.23)"><rect width="57.165" height="4.397" transform="translate(1810.266 900.986)"/><path d="M3913.908,201.111v-4.4a2.2,2.2,0,0,0-4.4,0v4.4a2.2,2.2,0,0,1-2.2,2.2h-8.795a11.006,11.006,0,0,0-10.994,10.993V337.428a11,11,0,0,0,10.994,10.993h83.549a11,11,0,0,0,10.992-10.993V283.9a2.22,2.22,0,0,1,.418-1.293l25.893-35.631a9.27,9.27,0,0,0-15-10.9,2.184,2.184,0,0,1-1.775.906,2.216,2.216,0,0,1-.924-.2,6.467,6.467,0,0,0-2.744-.6,6.618,6.618,0,0,0-2.756.6,2.218,2.218,0,0,1-2.107-.15,2.206,2.206,0,0,1-1.008-1.851V214.3a11.007,11.007,0,0,0-10.992-10.993h-8.795a2.2,2.2,0,0,1-2.2-2.2v-4.4a2.2,2.2,0,1,0-4.4,0v4.4a2.2,2.2,0,0,1-2.2,2.2h-48.369A2.2,2.2,0,0,1,3913.908,201.111Zm74.754,136.317a6.6,6.6,0,0,1-6.6,6.6h-83.549a6.6,6.6,0,0,1-6.6-6.6V234.091a2.2,2.2,0,0,1,2.2-2.2h92.344a2.2,2.2,0,0,1,2.2,2.2v10.87a2.21,2.21,0,0,1-.422,1.293l-10.078,13.869a9.246,9.246,0,0,0-.41,10.29,2.2,2.2,0,0,1-.1,2.436l-12.717,17.5a2.2,2.2,0,0,1-1.781.906h-58.045v4.4h51.656a2.2,2.2,0,0,1,1.789,3.483,54.905,54.905,0,0,0-6.789,12.682,2.2,2.2,0,0,1-2.059,1.425h-44.6v4.4h41.924a2.2,2.2,0,0,1,2.119,2.784l-1.586,5.747a2.289,2.289,0,0,0,.377,2.084,2.522,2.522,0,0,0,1.961,1,2.38,2.38,0,0,0,1.324-.418l8.328-5.5a54.756,54.756,0,0,0,14.178-13.557l10.943-15.065a2.207,2.207,0,0,1,1.781-.906,2.268,2.268,0,0,1,.678.106,2.2,2.2,0,0,1,1.521,2.093Zm-28.01-28.437,2.881,2.093a2.2,2.2,0,0,1,.205,3.386,50.453,50.453,0,0,1-5.562,4.49,2.2,2.2,0,0,1-1.258.4,2.2,2.2,0,0,1-2.105-2.836,51.02,51.02,0,0,1,2.555-6.68,2.206,2.206,0,0,1,1.443-1.2,2.294,2.294,0,0,1,.549-.07A2.189,2.189,0,0,1,3960.652,308.99Zm31.854-49.1,15.422-21.226a4.872,4.872,0,0,1,7.885,5.725l-15.428,21.23a2.2,2.2,0,0,1-1.779.906,2.174,2.174,0,0,1-1.289-.422l-4.326-3.14a2.194,2.194,0,0,1-.879-1.433A2.232,2.232,0,0,1,3992.506,259.89Zm-3.391,6.209a2.189,2.189,0,0,1,1.293.422l4.322,3.14a2.2,2.2,0,0,1,.488,3.074l-25.037,34.457-.287.387a2.2,2.2,0,0,1-3.057.471l-4.322-3.14a2.2,2.2,0,0,1-.5-3.056l.277-.387L3987.334,267a2.222,2.222,0,0,1,1.434-.879A2.374,2.374,0,0,1,3989.115,266.1Zm-22.439-56.193v4.4a2.2,2.2,0,1,0,4.4,0v-4.4a2.2,2.2,0,0,1,2.2-2.2h8.795a6.6,6.6,0,0,1,6.6,6.6V225.3a2.2,2.2,0,0,1-2.2,2.2h-92.344a2.2,2.2,0,0,1-2.2-2.2V214.3a6.6,6.6,0,0,1,6.6-6.6h8.795a2.2,2.2,0,0,1,2.2,2.2v4.4a2.2,2.2,0,0,0,4.4,0v-4.4a2.2,2.2,0,0,1,2.2-2.2h48.369A2.2,2.2,0,0,1,3966.676,209.906Z" transform="translate(-2094.846 631.715)"/><rect width="26.384" height="4.397" transform="translate(1810.266 879)"/></g></svg>