<svg xmlns="http://www.w3.org/2000/svg" width="123.125" height="153.933" viewBox="0 0 123.125 153.933"><g transform="translate(-3328.19 -4212.167)"><path d="M4298.28,964.515l-.334.053-59.363,9.059-1.865.286v54.373c0,29.559,12.541,56.3,34.4,73.361,6.336,4.947,11.686,8.843,15.887,11.587a62.575,62.575,0,0,0,6.271,3.68,8.906,8.906,0,0,0,10,0,61.5,61.5,0,0,0,6.27-3.68c4.2-2.744,9.553-6.64,15.889-11.587,21.869-17.062,34.408-43.8,34.408-73.361V973.912l-1.869-.286-59.363-9.059Zm57.164,15.065v48.7c0,28.2-11.924,53.669-32.715,69.891-6.24,4.872-11.486,8.7-15.584,11.376a57.661,57.661,0,0,1-5.809,3.412,13.8,13.8,0,0,1-2.428.98,2.383,2.383,0,0,1-.639.088,2.12,2.12,0,0,1-.584-.075l-.029-.009a14.059,14.059,0,0,1-2.434-.985,57.233,57.233,0,0,1-5.807-3.412c-4.1-2.678-9.35-6.5-15.592-11.376-20.787-16.222-32.711-41.7-32.711-69.891v-48.7a2.2,2.2,0,0,1,1.865-2.177l54.967-8.39a2.52,2.52,0,0,1,.664,0l54.967,8.39A2.206,2.206,0,0,1,4355.444,979.58Z" transform="translate(-908.527 3247.652)"/><path d="M4266.623,1069.477l16.762,12.365,1.307.963,1.307-.963,16.764-12.365a64.021,64.021,0,0,0,25.9-51.308v-42.5l-1.867-.282-41.779-6.319-.326-.053-.33.053-41.773,6.319-1.871.282v42.5A64.008,64.008,0,0,0,4266.623,1069.477Zm-21.508-88.136a2.195,2.195,0,0,1,1.869-2.172l37.377-5.655a2.1,2.1,0,0,1,.33-.022,2.068,2.068,0,0,1,.33.022l37.377,5.655a2.2,2.2,0,0,1,1.867,2.172v36.828a59.6,59.6,0,0,1-24.117,47.768L4286,1076.38a2.214,2.214,0,0,1-1.307.426,2.188,2.188,0,0,1-1.307-.426l-14.154-10.444a59.6,59.6,0,0,1-24.115-47.768Z" transform="translate(-894.938 3262.939)"/></g></svg>