<svg xmlns="http://www.w3.org/2000/svg" width="145.111" height="129.774" viewBox="0 0 145.111 129.774"><g transform="translate(-2085.948 -1141.712)"><path d="M3965.212,396.033h123.123a11.006,11.006,0,0,0,10.994-10.993V327.993a10.973,10.973,0,0,0-6.781-10.158,2.191,2.191,0,0,1-1.34-1.763l-1.812-14.845a11.052,11.052,0,0,0-9.15-9.52,2.19,2.19,0,0,1-1.791-1.675l-3.5-15.237a10.941,10.941,0,0,0-10.7-8.535,11.166,11.166,0,0,0-2.965.409l-99.027,27.615a11.027,11.027,0,0,0-8.037,10.589v80.167A11,11,0,0,0,3965.212,396.033ZM4077.628,296.02a7.138,7.138,0,0,1,.857-.053,6.6,6.6,0,0,1,6.545,5.8l1.564,12.823a2.194,2.194,0,0,1-2.15,2.467l-119.383,1.6a11.1,11.1,0,0,0-3.518.624,2.1,2.1,0,0,1-.73.127,2.233,2.233,0,0,1-1.293-.418,2.2,2.2,0,0,1-.906-1.834,6.559,6.559,0,0,1,5.744-6.385Zm-114.189,2.5,99.027-27.615a6.741,6.741,0,0,1,1.773-.242,6.57,6.57,0,0,1,6.428,5.118l3.189,13.869a2.205,2.205,0,0,1-1.861,2.674L3963.79,306.4a11.192,11.192,0,0,0-2.246.536,2.2,2.2,0,0,1-.73.123,2.2,2.2,0,0,1-2.2-2.2A6.621,6.621,0,0,1,3963.438,298.518Zm-4.824,84.323v-53.2a6.623,6.623,0,0,1,6.508-6.6l123.125-1.649h0a6.625,6.625,0,0,1,6.686,6.6v57.046a6.605,6.605,0,0,1-6.6,6.6H3965.212a6.6,6.6,0,0,1-6.6-6.6Z" transform="translate(-1868.27 875.453)"/><rect width="138.192" height="12.397" transform="translate(2089.408 1209.924)"/><rect width="13.192" height="4.397" transform="translate(2200.277 1249.5)"/></g></svg>