<svg xmlns="http://www.w3.org/2000/svg" width="125.673" height="112.395" viewBox="0 0 125.673 112.395">
  <g id="payment" transform="translate(-2085.954 -1141.713)">
    <path id="Path_11999" data-name="Path 11999" d="M3963.739,378.655h106.635a9.532,9.532,0,0,0,9.522-9.521V319.726a9.5,9.5,0,0,0-5.873-8.8,1.9,1.9,0,0,1-1.161-1.527l-1.569-12.857a9.572,9.572,0,0,0-7.924-8.245,1.9,1.9,0,0,1-1.552-1.451l-3.031-13.2a9.476,9.476,0,0,0-9.267-7.392,9.67,9.67,0,0,0-2.568.354l-85.766,23.917a9.55,9.55,0,0,0-6.961,9.171v69.432A9.528,9.528,0,0,0,3963.739,378.655Zm97.365-86.62a6.2,6.2,0,0,1,.743-.046,5.716,5.716,0,0,1,5.668,5.023l1.355,11.106a1.9,1.9,0,0,1-1.862,2.137l-103.4,1.386a9.614,9.614,0,0,0-3.047.54,1.817,1.817,0,0,1-.632.11,1.934,1.934,0,0,1-1.121-.362,1.9,1.9,0,0,1-.784-1.588,5.68,5.68,0,0,1,4.974-5.53Zm-98.9,2.165,85.766-23.917a5.838,5.838,0,0,1,1.536-.21,5.689,5.689,0,0,1,5.567,4.433l2.762,12.012a1.91,1.91,0,0,1-1.612,2.316l-93.717,12.191a9.7,9.7,0,0,0-1.945.464,1.909,1.909,0,0,1-2.537-1.8,5.734,5.734,0,0,1,4.18-5.492Zm-4.178,73.031V321.155a5.736,5.736,0,0,1,5.637-5.716l106.637-1.428h0a5.738,5.738,0,0,1,5.792,5.716v49.407a5.72,5.72,0,0,1-5.716,5.716H3963.739a5.716,5.716,0,0,1-5.716-5.716Z" transform="translate(-1868.27 875.453)"/>
    <rect id="Rectangle_1774" data-name="Rectangle 1774" width="119.686" height="10.737" transform="translate(2088.945 1200.79)"/>
    <rect id="Rectangle_1775" data-name="Rectangle 1775" width="11.425" height="3.808" transform="translate(2184.968 1235.066)"/>
  </g>
</svg>
