<svg id="Layer_1" data-name="Layer 1" fill="rgba(107, 114, 128)" xmlns="http://www.w3.org/2000/svg" viewBox="0 0 512 512"><title>return-arrow-right-glyph</title><path d="M256,0C114.84,0,0,114.84,0,256S114.84,512,256,512,512,397.16,512,256,397.16,0,256,0ZM383.58,217.51c-.13.63-.36,1.22-.54,1.83a12.46,12.46,0,0,1-1.74,4.2c-.3.54-.54,1.11-.88,1.63a21.42,21.42,0,0,1-2.67,3.27l-64,64a21.33,21.33,0,0,1-30.17-30.17l27.58-27.58H224a53.33,53.33,0,0,0,0,106.67h32A21.33,21.33,0,0,1,256,384H224a96,96,0,0,1,0-192h87.16l-27.58-27.58a21.33,21.33,0,0,1,30.17-30.17l64,64a21.42,21.42,0,0,1,2.67,3.27c.35.52.59,1.09.88,1.63a12.46,12.46,0,0,1,1.74,4.2c.18.61.42,1.19.54,1.83A21.43,21.43,0,0,1,383.58,217.51Z"/></svg>