<svg xmlns="http://www.w3.org/2000/svg" width="146.387" height="146.387" viewBox="0 0 146.387 146.387"><g transform="translate(-3316.56 -3908.114)"><path d="M4281.969,902.794a40.548,40.548,0,1,0,40.543,40.548A40.594,40.594,0,0,0,4281.969,902.794Zm0,76.7a36.15,36.15,0,1,1,36.146-36.15A36.192,36.192,0,0,1,4281.969,979.492Z" transform="translate(-892.547 3037.965)"/><path d="M4269.4,906.515a24.185,24.185,0,1,0,24.186,24.185A24.215,24.215,0,0,0,4269.4,906.515Zm0,43.973A19.788,19.788,0,1,1,4289.19,930.7,19.807,19.807,0,0,1,4269.4,950.488Z" transform="translate(-879.65 3050.607)"/><path d="M4364.173,949.308a2.2,2.2,0,0,1-1.627-1.389c-.482-1.293-1.02-2.586-1.6-3.844a2.2,2.2,0,0,1,.172-2.133l6.6-9.9a5.757,5.757,0,0,0-.717-7.251l-15.967-15.967a5.753,5.753,0,0,0-7.25-.717l-9.9,6.6a2.182,2.182,0,0,1-1.217.369,2.158,2.158,0,0,1-.916-.2c-1.258-.572-2.551-1.108-3.838-1.592a2.194,2.194,0,0,1-1.389-1.627l-2.332-11.666a5.767,5.767,0,0,0-5.637-4.622h-22.582a5.753,5.753,0,0,0-5.631,4.622l-2.336,11.666a2.2,2.2,0,0,1-1.385,1.627c-1.3.484-2.59,1.021-3.844,1.592a2.163,2.163,0,0,1-.916.2,2.21,2.21,0,0,1-1.217-.369l-9.9-6.6a5.744,5.744,0,0,0-7.254.717l-15.969,15.967a5.767,5.767,0,0,0-.717,7.251l6.6,9.9a2.2,2.2,0,0,1,.17,2.137c-.576,1.257-1.111,2.55-1.6,3.839a2.189,2.189,0,0,1-1.627,1.389l-11.662,2.331a5.767,5.767,0,0,0-4.621,5.637v22.58a5.759,5.759,0,0,0,4.621,5.633l11.662,2.335a2.191,2.191,0,0,1,1.627,1.385c.484,1.293,1.02,2.585,1.592,3.843a2.194,2.194,0,0,1-.166,2.133l-6.6,9.9a5.767,5.767,0,0,0,.717,7.255l15.969,15.962a5.748,5.748,0,0,0,7.25.721l9.9-6.6a2.2,2.2,0,0,1,1.221-.369,2.243,2.243,0,0,1,.916.2c1.254.576,2.547,1.112,3.844,1.6a2.187,2.187,0,0,1,1.385,1.627l2.336,11.662a5.753,5.753,0,0,0,5.631,4.622h22.582a5.767,5.767,0,0,0,5.637-4.622l2.332-11.662a2.18,2.18,0,0,1,1.389-1.627c1.293-.484,2.584-1.02,3.838-1.6a2.236,2.236,0,0,1,.916-.2,2.2,2.2,0,0,1,1.221.369l9.9,6.6a5.751,5.751,0,0,0,7.252-.721L4367,1012.339a5.764,5.764,0,0,0,.717-7.255l-6.6-9.9a2.208,2.208,0,0,1-.168-2.133c.574-1.253,1.111-2.546,1.594-3.843a2.2,2.2,0,0,1,1.627-1.385l11.666-2.335a5.757,5.757,0,0,0,4.621-5.633v-22.58a5.765,5.765,0,0,0-4.621-5.637Zm11.889,29.853a2.2,2.2,0,0,1-1.766,2.155l-14.705,2.942-.4,1.222a54.311,54.311,0,0,1-3.254,7.841l-.586,1.148,8.32,12.479a2.2,2.2,0,0,1-.271,2.77l-14.98,14.986a2.206,2.206,0,0,1-2.777.273l-12.479-8.32-1.146.585a54.308,54.308,0,0,1-7.842,3.25l-1.221.4-2.943,14.7a2.2,2.2,0,0,1-2.154,1.768h-21.186a2.2,2.2,0,0,1-2.16-1.768l-2.937-14.7-1.227-.4a54.688,54.688,0,0,1-7.842-3.25l-1.146-.585-12.48,8.32a2.2,2.2,0,0,1-2.773-.273l-14.98-14.982a2.193,2.193,0,0,1-.277-2.775l8.322-12.484-.584-1.148a53.8,53.8,0,0,1-3.25-7.836l-.4-1.222-14.7-2.942a2.2,2.2,0,0,1-1.77-2.155V957.97a2.2,2.2,0,0,1,1.77-2.155l14.7-2.942.4-1.223a54.069,54.069,0,0,1,3.25-7.84l.584-1.148-8.318-12.48a2.2,2.2,0,0,1,.273-2.775l14.98-14.981a2.209,2.209,0,0,1,1.557-.642,2.159,2.159,0,0,1,1.217.369l12.48,8.32,1.146-.585a54.216,54.216,0,0,1,7.842-3.25l1.227-.4,2.938-14.7a2.2,2.2,0,0,1,2.16-1.768h21.186a2.2,2.2,0,0,1,2.154,1.768l2.943,14.7,1.221.4a54.126,54.126,0,0,1,7.842,3.25l1.143.585,12.479-8.32a2.175,2.175,0,0,1,1.219-.369,2.209,2.209,0,0,1,1.557.642l14.98,14.981a2.2,2.2,0,0,1,.277,2.775l-8.32,12.48.586,1.143a54.155,54.155,0,0,1,3.254,7.845l.4,1.223,14.705,2.942a2.2,2.2,0,0,1,1.766,2.155Z" transform="translate(-917.514 3012.744)"/></g></svg>