<svg xmlns="http://www.w3.org/2000/svg" width="171.496" height="114.128" viewBox="0 0 171.496 114.128"><g transform="translate(-2996.192 -846.12)"><path d="M4173.944,219.545a4.068,4.068,0,1,0,4.068,4.068A4.073,4.073,0,0,0,4173.944,219.545Z" transform="translate(-1135.605 716.75)"/><path d="M4195.91,219.545a4.068,4.068,0,1,0,4.066,4.068A4.072,4.072,0,0,0,4195.91,219.545Z" transform="translate(-1060.986 716.75)"/><path d="M4208.139,206.67h-15.8a1.976,1.976,0,0,0-1.977,1.979v16.508a1.979,1.979,0,0,0,1.977,1.979h24.945a1.982,1.982,0,0,0,1.979-1.979v-5.734a1.993,1.993,0,0,0-.471-1.28l-9.143-10.778A1.97,1.97,0,0,0,4208.139,206.67Zm7.6,14.124v.624a2.2,2.2,0,0,1-2.2,2.2h-17.469a2.2,2.2,0,0,1-2.2-2.2v-9.032a2.2,2.2,0,0,1,2.2-2.2h10.33a2.2,2.2,0,0,1,1.678.774l7.137,8.412A2.189,2.189,0,0,1,4215.74,220.794Z" transform="translate(-1066.02 673.01)"/><path d="M4315.651,220.493a6.588,6.588,0,0,0-4.963-2.256h-28.676a2.2,2.2,0,0,1-2.2-2.2v-10.4a6.6,6.6,0,0,0-6.6-6.6h-105.4a6.6,6.6,0,0,0-6.6,6.6v77.111a6.6,6.6,0,0,0,6.6,6.6h13.176a2.2,2.2,0,0,1,2.193,2.357c-.035.475-.051.954-.051,1.442a20.03,20.03,0,0,0,37.063,10.536,2.2,2.2,0,0,1,1.871-1.042h58.975a2.189,2.189,0,0,1,1.871,1.042,20.03,20.03,0,0,0,37.063-10.488,2.2,2.2,0,0,1,2.2-2.194h3.943a6.6,6.6,0,0,0,6.6-6.6V242.466a6.612,6.612,0,0,0-1.631-4.345Zm-112.492,88.276a15.63,15.63,0,1,1,15.629-15.628A15.646,15.646,0,0,1,4203.159,308.769Zm17.709-24.994a20.038,20.038,0,0,0-35.42,0,2.2,2.2,0,0,1-1.943,1.17h-15.691a2.2,2.2,0,0,1-2.2-2.2V205.634a2.2,2.2,0,0,1,2.2-2.2h105.4a2.2,2.2,0,0,1,2.2,2.2v77.111a2.2,2.2,0,0,1-2.2,2.2h-50.406A2.2,2.2,0,0,1,4220.868,283.774Zm58.691,13.715a2.2,2.2,0,0,1-1.65.747H4225.2a2.2,2.2,0,0,1-2.182-2.484,20.729,20.729,0,0,0,.168-2.612c0-.488-.018-.967-.051-1.442a2.2,2.2,0,0,1,2.191-2.357h52.289a2.377,2.377,0,0,1,1.688.7,2.287,2.287,0,0,1,.67,1.653c-.037.479-.055.959-.055,1.447a20.243,20.243,0,0,0,.172,2.616A2.2,2.2,0,0,1,4279.56,297.49Zm20.391,11.279a15.63,15.63,0,1,1,15.627-15.628A15.648,15.648,0,0,1,4299.95,308.769Zm28.365-24.37a2.2,2.2,0,0,1-2.2,2.2h-5.723a2.2,2.2,0,0,1-2.023-1.332,20.037,20.037,0,0,0-34.586-3.958,2.192,2.192,0,0,1-1.771.9,2.333,2.333,0,0,1-.687-.106,2.207,2.207,0,0,1-1.512-2.093V224.833a2.2,2.2,0,0,1,2.2-2.2h28.676a2.21,2.21,0,0,1,1.656.752l15.426,17.633a2.192,2.192,0,0,1,.545,1.447Z" transform="translate(-1165.025 647.082)"/></g></svg>