<svg xmlns="http://www.w3.org/2000/svg" width="392.867" height="92.031" viewBox="0 0 392.867 92.031">
  <g id="Group_5267" data-name="Group 5267" transform="translate(0)">
    <g id="Group_5265" data-name="Group 5265" transform="translate(0 0.28)">
      <g id="Group_5264" data-name="Group 5264" transform="translate(0 0)">
        <g id="Group_5263" data-name="Group 5263">
          <path id="Path_11689" data-name="Path 11689" d="M791.08,777.658a22.711,22.711,0,0,0,14.95,6.783h254.821c4.958,0,6.342-3.055,3.076-6.783l-27.97-31.954a10.61,10.61,0,0,1,0-13.561l27.97-31.954c3.265-3.732,1.881-6.783-3.076-6.783H806.03a22.691,22.691,0,0,0-14.95,6.783l-27.971,31.954a10.612,10.612,0,0,0,0,13.561Z" transform="translate(-760.66 -693.406)" fill="#ffbc00"/>
          <path id="Path_11690" data-name="Path 11690" d="M1064.53,700.7a6.612,6.612,0,0,1,.931.061,6.319,6.319,0,0,1-.566.739l-27.971,31.958a14.294,14.294,0,0,0,0,18.308l27.97,31.958a6.045,6.045,0,0,1,.565.739,6.589,6.589,0,0,1-.93.061H809.709a19.166,19.166,0,0,1-12.239-5.552L769.5,747.022a6.973,6.973,0,0,1,0-8.813l27.971-31.954a19.141,19.141,0,0,1,12.238-5.551Z" transform="translate(-764.339 -697.098)" fill="#212121"/>
        </g>
      </g>
    </g>
    <g id="Group_5266" data-name="Group 5266" transform="translate(288.846 0)">
      <path id="Path_11" data-name="Path 11" d="M1368.754,696.641l-22.19,38.522a7.493,7.493,0,0,0,.009,7.491l22.271,38.475a7.488,7.488,0,0,0,6.494,3.74l44.46-.047a7.49,7.49,0,0,0,6.486-3.754l22.188-38.523a7.489,7.489,0,0,0-.008-7.49l-22.271-38.476a7.49,7.49,0,0,0-6.494-3.74l-44.46.047A7.487,7.487,0,0,0,1368.754,696.641Zm55.53,68.9a9.618,9.618,0,0,1-9.63-9.606l-.018-16.943a19.353,19.353,0,0,0-4.741-13.553,15.848,15.848,0,0,0-12.287-5.177,16.122,16.122,0,0,0-12.3,5.148,18.584,18.584,0,0,0-4.795,13.234,18.978,18.978,0,0,0,4.957,13.526,16.527,16.527,0,0,0,12.613,5.259,19.681,19.681,0,0,0,6.764-1.2,25.535,25.535,0,0,0,6.6-3.7l0,4.111a9.108,9.108,0,0,1-6.793,8.879l-.072.02a31.354,31.354,0,0,1-7.577.9,25.226,25.226,0,0,1-7.554-1.162,24.663,24.663,0,0,1-6.8-3.279,26.686,26.686,0,0,1-8.815-9.9,28.631,28.631,0,0,1-3.056-13.228,27.234,27.234,0,0,1,7.53-19.759,25.563,25.563,0,0,1,19.174-7.818,26.506,26.506,0,0,1,14.019,3.851,25.831,25.831,0,0,1,9.792,10.586,24.078,24.078,0,0,1,2.262,6.654,63.42,63.42,0,0,1,.69,10.786Z" transform="translate(-1345.451 -692.839)" fill="#ffbc00"/>
      <path id="Path_12" data-name="Path 12" d="M1364.354,787.245a.292.292,0,0,0,.516-.273c-5.434-11.193-11.188-30.4-11.193-35,0-4.725,5.447-21.978,10.14-31.975a.254.254,0,0,0-.45-.236l-17.039,28.929a7.446,7.446,0,0,0,.008,7.445Z" transform="translate(-1345.334 -706.393)" fill="#f39c12"/>
    </g>
    <path id="Path_11691" data-name="Path 11691" d="M1155.55,801.233a11.444,11.444,0,0,0,3.624-3.811,6.154,6.154,0,0,0,.677-4.716,5.345,5.345,0,0,0-2.836-3.63,12.119,12.119,0,0,0-5.681-1.148,19.862,19.862,0,0,0-4.813.521,11.325,11.325,0,0,0-2.655.9,27.97,27.97,0,0,1,6.93,5.362A29.4,29.4,0,0,1,1155.55,801.233Zm.66,27.1a28.936,28.936,0,0,1-13.191-2.547,12.671,12.671,0,0,1-6.695-8.839,11.4,11.4,0,0,1-.236-5.424,8.258,8.258,0,0,1,2.089-3.845,11.556,11.556,0,0,1,3.8-2.575,26.038,26.038,0,0,1,4.852-1.527,33.822,33.822,0,0,0-12.635-11.4,3.042,3.042,0,0,1-1.2-1.038,7.267,7.267,0,0,1-.677-1.895l-1.256-5.046q-.234-.927,1.089-1.9a13.975,13.975,0,0,1,3.8-1.784,38.739,38.739,0,0,1,5.834-1.368,45.39,45.39,0,0,1,7.229-.569,39.783,39.783,0,0,1,8.9.854,23.592,23.592,0,0,1,6.673,2.492,14.684,14.684,0,0,1,4.45,3.817,13.063,13.063,0,0,1,2.294,4.758,10.4,10.4,0,0,1,.257,3.908,12.265,12.265,0,0,1-.961,3.411,13.023,13.023,0,0,1-1.756,2.874,14.465,14.465,0,0,1-2.211,2.214c.507.049,1.038.084,1.593.108s1.079.035,1.572.035l8.822-.035q3.29-.011,4.425,4.553a6.174,6.174,0,0,1,.139,3.7,2.239,2.239,0,0,1-2.235,1.093l-12.993.048a28.276,28.276,0,0,1-5.241-.514,18.553,18.553,0,0,1-5.316-1.839q-2.045.7-3.887,1.253a28.085,28.085,0,0,0-3.175,1.135,5.641,5.641,0,0,0-2.041,1.4,2.256,2.256,0,0,0-.375,2.131,3.238,3.238,0,0,0,2.11,2.349,17.917,17.917,0,0,0,5.889.652l6.08-.024a.95.95,0,0,1,.961.552.728.728,0,0,1,.055.222l1.944,7.812a.529.529,0,0,1-.4.774.664.664,0,0,1-.236,0Zm24.755-15.971a3.847,3.847,0,0,1-2.71-.954,6.811,6.811,0,0,1-1.68-3.439q-1.228-4.951,2.058-4.966l5.1-.018a3.515,3.515,0,0,0,2.784-.9,3.857,3.857,0,0,0,.146-3.214l-4.563-18.345a.529.529,0,0,1,.4-.777.659.659,0,0,1,.233,0l9.953-.038a.94.94,0,0,1,.961.552.715.715,0,0,1,.056.219l5.487,22.048a9.308,9.308,0,0,1-.382,7.409,7.978,7.978,0,0,1-6.816,2.381Zm-3.741,15.891a.935.935,0,0,1-.958-.548.634.634,0,0,1-.055-.222l-1.888-7.583a.528.528,0,0,1,.392-.777.768.768,0,0,1,.236,0l8.228-.028a.938.938,0,0,1,.958.548.688.688,0,0,1,.055.222l1.887,7.586a.527.527,0,0,1-.4.774.746.746,0,0,1-.232,0Zm12.671-.045a.94.94,0,0,1-.961-.552.716.716,0,0,1-.056-.219l-1.888-7.583a.532.532,0,0,1,.392-.781.7.7,0,0,1,.239,0l8.309-.031a.934.934,0,0,1,.958.548.643.643,0,0,1,.055.223l1.888,7.586a.526.526,0,0,1-.4.774.744.744,0,0,1-.233,0Zm18.449-47.781a.53.53,0,0,1,.4-.777.89.89,0,0,1,.236,0l10.032-.038a.94.94,0,0,1,.961.552.72.72,0,0,1,.056.219l4.543,18.261a5.51,5.51,0,0,0,2.53,3.054,9.115,9.115,0,0,0,4.761,1.1l1.812-.007c1.1,0,23.467.271,24.2.993a7.448,7.448,0,0,1,1.708,3.557c.784,3.144-21.385,4.793-23.579,4.8a20.738,20.738,0,0,1-4.814-.486,8.82,8.82,0,0,1-3.9-2.117l.309,1.239a17.717,17.717,0,0,1-.378,13.052c-2.429,3.13-6.6,4.706-11.3,4.272l-3.772.017a.944.944,0,0,1-.961-.552.722.722,0,0,1-.055-.219l-1.943-7.815a.529.529,0,0,1,.4-.777.653.653,0,0,1,.233,0l1.812-.007a6.474,6.474,0,0,0,3.287-.687,2.981,2.981,0,0,0,1.37-1.94,8.215,8.215,0,0,0,0-3.123q-.3-1.859-.892-4.255Zm77.328,31.543a12.65,12.65,0,0,1-5.546-1.1,11.248,11.248,0,0,1-3.866-2.967,4.22,4.22,0,0,1-2.638,3.3,18.6,18.6,0,0,1-6.295.837l-31.332.118a3.958,3.958,0,0,1-2.689-.882,6.535,6.535,0,0,1-1.68-3.436,6.783,6.783,0,0,1-.177-3.873,2.153,2.153,0,0,1,2.214-1.17l26.976-.1q2.384-.005,2.762-1.131a8.7,8.7,0,0,0-.354-4.147l-2.891-11.616a.529.529,0,0,1,.4-.777.871.871,0,0,1,.232,0l10.036-.038a.941.941,0,0,1,.962.552.735.735,0,0,1,.055.219L1275,798.45a4.54,4.54,0,0,0,2.471,3.321,9.078,9.078,0,0,0,3.831.836,7.623,7.623,0,0,0,2.429-.319,1.779,1.779,0,0,0,1.128-.933,3.339,3.339,0,0,0,.118-1.666,24.673,24.673,0,0,0-.52-2.593l-2.832-11.373a.531.531,0,0,1,.4-.777.653.653,0,0,1,.233,0l10.037-.038a.939.939,0,0,1,.961.552.7.7,0,0,1,.052.219l3.141,12.612a4.586,4.586,0,0,0,2.54,3.436,10.077,10.077,0,0,0,4.029.8,6.524,6.524,0,0,0,2.308-.319,1.69,1.69,0,0,0,.993-.975,3.317,3.317,0,0,0,.07-1.7q-.178-1.046-.562-2.592l-4.193-16.856a.529.529,0,0,1,.4-.777.871.871,0,0,1,.232,0l10.037-.038a.94.94,0,0,1,.961.552.632.632,0,0,1,.052.219l5.487,22.048a9.307,9.307,0,0,1-.378,7.41,7.992,7.992,0,0,1-6.819,2.384l-4.536.017a12.348,12.348,0,0,1-5.5-1.1,11.2,11.2,0,0,1-3.828-2.964,4.337,4.337,0,0,1-2.686,3.262,17.35,17.35,0,0,1-6.184.871Z" transform="translate(-1069.565 -757.001)" fill="#fff"/>
  </g>
</svg>
