<svg id="Group_5262" data-name="Group 5262" xmlns="http://www.w3.org/2000/svg" width="395.493" height="92.961" viewBox="0 0 395.493 92.961">
  <g id="Group_5261" data-name="Group 5261" transform="translate(0 0)">
    <g id="Group_5260" data-name="Group 5260" transform="translate(87.375 0.283)">
      <g id="Group_5259" data-name="Group 5259" transform="translate(0 0)">
        <g id="Group_5258" data-name="Group 5258">
          <path id="Path_11686" data-name="Path 11686" d="M1038.05,700.257c-3.3-3.766-10.094-6.851-15.1-6.851h-257.4c-5.007,0-6.406,3.085-3.107,6.851L790.7,732.534a10.714,10.714,0,0,1,0,13.7l-28.252,32.277c-3.3,3.77-1.9,6.851,3.107,6.851h257.4c5.006,0,11.8-3.081,15.1-6.851l28.254-32.277a10.718,10.718,0,0,0,0-13.7Z" transform="translate(-760.66 -693.406)" fill="#ffbc00"/>
          <path id="Path_11687" data-name="Path 11687" d="M769.526,785.374a6.609,6.609,0,0,1-.939-.062,6.336,6.336,0,0,1,.571-.746l28.253-32.281a14.437,14.437,0,0,0,0-18.493l-28.252-32.281a6.09,6.09,0,0,1-.571-.746,6.673,6.673,0,0,1,.938-.062h257.4a19.363,19.363,0,0,1,12.362,5.607l28.251,32.277a7.045,7.045,0,0,1,0,8.9l-28.253,32.277a19.338,19.338,0,0,1-12.361,5.608Z" transform="translate(-764.631 -697.062)" fill="#212121"/>
        </g>
      </g>
    </g>
    <path id="Path_11" data-name="Path 11" d="M608.988,696.679l-22.413,38.911a7.567,7.567,0,0,0,.008,7.567l22.5,38.864a7.564,7.564,0,0,0,6.56,3.778l44.909-.048a7.564,7.564,0,0,0,6.552-3.792l22.413-38.912a7.566,7.566,0,0,0-.008-7.566l-22.5-38.865a7.565,7.565,0,0,0-6.56-3.778l-44.909.048A7.563,7.563,0,0,0,608.988,696.679Zm56.091,69.6a9.716,9.716,0,0,1-9.727-9.7l-.018-17.115a19.549,19.549,0,0,0-4.789-13.69,16.009,16.009,0,0,0-12.412-5.23,16.285,16.285,0,0,0-12.428,5.2,18.773,18.773,0,0,0-4.844,13.368,19.174,19.174,0,0,0,5.007,13.663,16.7,16.7,0,0,0,12.741,5.312,19.868,19.868,0,0,0,6.832-1.216,25.808,25.808,0,0,0,6.664-3.739l0,4.152a9.2,9.2,0,0,1-6.861,8.969l-.073.02a31.693,31.693,0,0,1-7.653.914,25.51,25.51,0,0,1-7.631-1.173,24.9,24.9,0,0,1-6.865-3.312,26.961,26.961,0,0,1-8.9-10,28.926,28.926,0,0,1-3.087-13.362,27.51,27.51,0,0,1,7.606-19.959,25.824,25.824,0,0,1,19.368-7.9,26.776,26.776,0,0,1,14.16,3.89,26.094,26.094,0,0,1,9.891,10.693,24.3,24.3,0,0,1,2.285,6.722,63.991,63.991,0,0,1,.7,10.894Z" transform="translate(-585.565 -692.839)" fill="#ffbc00"/>
    <path id="Path_12" data-name="Path 12" d="M756.815,714.813a.295.295,0,0,0-.521.276c5.489,11.307,11.3,30.711,11.306,35.351,0,4.773-5.5,22.2-10.243,32.3a.257.257,0,0,0,.455.238l17.21-29.221a7.52,7.52,0,0,0-.008-7.521Z" transform="translate(-671.082 -703.774)" fill="#f39c12"/>
  </g>
  <g id="SPEED" transform="translate(153.001 21.689)" style="isolation: isolate">
    <g id="Group_5268" data-name="Group 5268" style="isolation: isolate">
      <path id="Path_11691" data-name="Path 11691" d="M1145.831,846.263a23.922,23.922,0,0,1-4.8-.468,24.615,24.615,0,0,1-4.23-1.249,17.748,17.748,0,0,1-3.47-1.843,12,12,0,0,1-2.5-2.249c-.257-.336-.195-.687.184-1.065l6.031-5.431a.6.6,0,0,1,.951-.066,18.576,18.576,0,0,0,4.224,3.033,12.18,12.18,0,0,0,5.865,1.34,9.745,9.745,0,0,0,5.484-1.4,5.953,5.953,0,0,0,2.644-3.658,3.177,3.177,0,0,0-.653-3.061q-1.1-1.182-4.785-1.683l-2.177-.316q-6.294-.869-9.03-3.963t-1.391-8.78a15.916,15.916,0,0,1,6.312-9.429,18.681,18.681,0,0,1,5.369-2.624,21.461,21.461,0,0,1,6.438-.94,23.627,23.627,0,0,1,7.715,1.19,15.462,15.462,0,0,1,5.664,3.248c.319.25.284.562-.094.937l-5.15,5.685c-.33.33-.635.4-.92.184a15.647,15.647,0,0,0-4.269-2.436,14.006,14.006,0,0,0-4.834-.809,7.407,7.407,0,0,0-4.561,1.312,5.686,5.686,0,0,0-2.217,3.311,3,3,0,0,0,.76,2.995q1.192,1.192,4.758,1.69l2.176.309q6.414.88,9.058,3.97t1.274,8.9a16.252,16.252,0,0,1-6.479,9.592,19.962,19.962,0,0,1-5.869,2.78A26.3,26.3,0,0,1,1145.831,846.263Z" transform="translate(-1130.68 -802.407)" fill="#fff"/>
      <path id="Path_11692" data-name="Path 11692" d="M1142.219,845.087c-.416,0-.576-.208-.475-.625l9.724-41.229a.726.726,0,0,1,.771-.628h16.491a16.094,16.094,0,0,1,5.952,1,9.794,9.794,0,0,1,4.019,2.811,8.839,8.839,0,0,1,1.923,4.307,14.252,14.252,0,0,1-.312,5.563,17.442,17.442,0,0,1-6.282,9.808,17.826,17.826,0,0,1-5.317,2.811,20.111,20.111,0,0,1-6.42,1h-7.559a.437.437,0,0,0-.465.375l-3.346,14.18a.724.724,0,0,1-.771.625Zm21.382-23.113a7.823,7.823,0,0,0,4.921-1.53,7.118,7.118,0,0,0,2.6-4.154,4.671,4.671,0,0,0-.635-4.185q-1.26-1.562-4.193-1.562h-7a.437.437,0,0,0-.465.375l-2.519,10.682c-.059.246.038.375.288.375Z" transform="translate(-1103.421 -801.918)" fill="#fff"/>
      <path id="Path_11693" data-name="Path 11693" d="M1162.359,803.233a.726.726,0,0,1,.77-.628h27.24c.413,0,.573.212.476.628l-1.579,6.684a.723.723,0,0,1-.77.625h-18.3a.437.437,0,0,0-.465.375l-1.989,8.433c-.059.25.035.375.288.375h15.239c.417,0,.579.208.483.625l-1.566,6.621a.724.724,0,0,1-.773.625h-15.239a.437.437,0,0,0-.465.375l-2.079,8.808c-.059.247.038.375.288.375h18.306c.413,0,.573.208.476.621l-1.579,6.688a.725.725,0,0,1-.77.625h-27.236q-.625,0-.479-.625Z" transform="translate(-1076.519 -801.918)" fill="#fff"/>
      <path id="Path_11694" data-name="Path 11694" d="M1172.53,803.233a.726.726,0,0,1,.77-.628h27.24c.413,0,.573.212.475.628l-1.579,6.684a.726.726,0,0,1-.771.625h-18.3a.437.437,0,0,0-.465.375l-1.989,8.433c-.059.25.035.375.288.375h15.239c.417,0,.58.208.479.625l-1.561,6.621a.727.727,0,0,1-.774.625H1176.34a.435.435,0,0,0-.465.375l-2.079,8.808c-.059.247.039.375.288.375h18.307c.413,0,.573.208.475.621l-1.579,6.688a.725.725,0,0,1-.77.625h-27.236c-.42,0-.576-.208-.479-.625Z" transform="translate(-1051.395 -801.918)" fill="#fff"/>
      <path id="Path_11695" data-name="Path 11695" d="M1182.7,803.233a.726.726,0,0,1,.771-.628h15.8q5.622,0,8.808,2.377a9.479,9.479,0,0,1,3.616,7.181c.028.586.042,1.2.035,1.846a22.442,22.442,0,0,1-.163,2.28c-.1.874-.274,1.916-.517,3.12s-.573,2.69-.982,4.439-.788,3.228-1.11,4.435-.646,2.245-.955,3.12-.618,1.638-.916,2.283-.6,1.26-.9,1.843a17.937,17.937,0,0,1-7,7.184,20.253,20.253,0,0,1-9.933,2.374h-15.8c-.42,0-.576-.208-.479-.625Zm1.325,33.3c-.059.25.038.371.288.371h4.81a12.44,12.44,0,0,0,5.365-1.031,8.159,8.159,0,0,0,3.613-3.651,7.8,7.8,0,0,0,.555-1.031c.173-.4.367-.906.576-1.534s.437-1.4.68-2.339.52-2.093.847-3.467.583-2.52.781-3.439.337-1.683.42-2.311a14.087,14.087,0,0,0,.142-1.527,7.343,7.343,0,0,0-.052-1.1,4.345,4.345,0,0,0-1.888-3.651,9.46,9.46,0,0,0-4.879-1.031h-4.81a.437.437,0,0,0-.465.371Z" transform="translate(-1026.27 -801.918)" fill="#fff"/>
    </g>
  </g>
</svg>
