<svg xmlns="http://www.w3.org/2000/svg" width="171.934" height="171.938" viewBox="0 0 171.934 171.938">
  <g id="Group_6" data-name="Group 6" transform="translate(-4 -7.132)">
    <g id="Group_2" data-name="Group 2" transform="translate(6 9.132)">
      <g id="Group_1" data-name="Group 1">
        <path id="Path_1" data-name="Path 1" d="M168.359,9.132H11.579L6,64.175a20.992,20.992,0,0,0,41.984,0,20.992,20.992,0,0,0,41.984.009v-.009a20.992,20.992,0,0,0,41.984,0,20.992,20.992,0,0,0,41.984,0Z" transform="translate(-6 -9.132)" fill="none" stroke="#000" strokeWidth="4"/>
      </g>
    </g>
    <g id="Group_5" data-name="Group 5" transform="translate(11.925 88.235)">
      <g id="Group_4" data-name="Group 4">
        <g id="Group_3" data-name="Group 3">
          <path id="Path_2" data-name="Path 2" d="M164.575,251.355a31.818,31.818,0,0,1-20.992-7.884,31.887,31.887,0,0,1-41.983,0,31.888,31.888,0,0,1-41.984,0,31.891,31.891,0,0,1-36.063,4.1v84.735h21.7V268.046H82V332.3h97.648V247.571A31.749,31.749,0,0,1,164.575,251.355Zm-6.635,54.271H105.37v-37.58h52.568v37.58Z" transform="translate(-23.553 -243.471)" fill="none" stroke="#000" strokeWidth="4"/>
          <path id="Path_3" data-name="Path 3" d="M485.963,255.616" transform="translate(-329.872 -251.516)" fill="none" stroke="#000" strokeWidth="4"/>
        </g>
      </g>
    </g>
  </g>
</svg>
