<svg xmlns="http://www.w3.org/2000/svg" width="140.713" height="134.149" viewBox="0 0 140.713 134.149"><g transform="translate(-2395.96 -2375.174)"><circle cx="3.298" cy="3.298" r="3.298" transform="translate(2508.494 2459.857)"/><path d="M4154.438,583.422v-5.4a6.583,6.583,0,0,0-5.076-6.424,2.19,2.19,0,0,1-1.684-2l-.352-5.708a6.581,6.581,0,0,0-8.4-5.937,2.2,2.2,0,0,1-2.73-1.539l-.41-1.517a10.986,10.986,0,0,0-13.947-7.621l-89.465,28.446a10.957,10.957,0,0,0-7.658,10.479v83.712a11,11,0,0,0,10.992,10.993h118.729a11.008,11.008,0,0,0,10.992-10.993V596.434a10.958,10.958,0,0,0-9.158-10.844A2.192,2.192,0,0,1,4154.438,583.422Zm-6.936-7.568a2.244,2.244,0,0,1,.34-.026,2.2,2.2,0,0,1,2.2,2.2v5.3a2.2,2.2,0,0,1-2.168,2.2l-37.527.51h-.029a2.2,2.2,0,0,1-.334-4.371Zm-7.432-13.649a2.2,2.2,0,0,1,.67-.105,2.241,2.241,0,0,1,1.244.382,2.2,2.2,0,0,1,.949,1.68l.365,5.871a2.2,2.2,0,0,1-1.861,2.308l-36.264,5.62a2.151,2.151,0,0,1-.338.026,2.2,2.2,0,0,1-.67-4.292Zm20.963,85.365a2.2,2.2,0,0,1-2.2,2.2h-17.953a15.026,15.026,0,1,1,0-30.051h17.953a2.2,2.2,0,0,1,2.2,2.2Zm0-51.136v16.688a2.2,2.2,0,0,1-2.2,2.2h-17.953a19.423,19.423,0,1,0,0,38.846h17.953a2.2,2.2,0,0,1,2.2,2.2v13.552a6.605,6.605,0,0,1-6.6,6.6H4035.71a6.6,6.6,0,0,1-6.6-6.6V586.206a6.571,6.571,0,0,1,4.6-6.288l89.467-28.446a6.583,6.583,0,0,1,8.363,4.573l.516,1.908a2.2,2.2,0,0,1-1.451,2.665l-82.221,26.313-.295.1a2.2,2.2,0,0,0,.809,4.243l105.447-1.433A6.626,6.626,0,0,1,4161.034,596.434Z" transform="translate(-1628.758 1828.412)"/></g></svg>