<svg xmlns="http://www.w3.org/2000/svg" width="18.586" height="18.586" viewBox="0 0 18.586 18.586">
  <g id="Icon_ionic-ios-arrow-dropup" data-name="Icon ionic-ios-arrow-dropup" transform="translate(21.961 21.961) rotate(180)">
    <path id="Path_33" data-name="Path 33" d="M10.234,17.9a.866.866,0,0,1,0-1.22l4.276-4.262a.861.861,0,0,1,1.188-.027l4.213,4.2a.861.861,0,1,1-1.215,1.22l-3.619-3.565L11.454,17.9A.862.862,0,0,1,10.234,17.9Z" transform="translate(-2.409 -3.204)" fill="#969696"/>
    <path id="Path_34" data-name="Path 34" d="M12.668,21.961a9.293,9.293,0,1,0-9.293-9.293A9.292,9.292,0,0,0,12.668,21.961Zm0-1.43A7.86,7.86,0,0,1,7.11,7.11,7.86,7.86,0,1,1,18.226,18.226,7.8,7.8,0,0,1,12.668,20.531Z" fill="#969696"/>
  </g>
</svg>
