<svg xmlns="http://www.w3.org/2000/svg" width="18.618" height="18.614" viewBox="0 0 18.618 18.614">
  <path id="Icon_awesome-instagram" data-name="Icon awesome-instagram" d="M9.311,4.535a4.772,4.772,0,1,0,4.772,4.772A4.765,4.765,0,0,0,9.311,4.535Zm0,7.875a3.1,3.1,0,1,1,3.1-3.1A3.108,3.108,0,0,1,9.311,12.41Zm6.081-8.07a1.113,1.113,0,1,1-1.113-1.113A1.111,1.111,0,0,1,15.392,4.339Zm3.161,1.13a5.509,5.509,0,0,0-1.5-3.9,5.545,5.545,0,0,0-3.9-1.5c-1.537-.087-6.143-.087-7.68,0a5.537,5.537,0,0,0-3.9,1.5,5.527,5.527,0,0,0-1.5,3.9c-.087,1.537-.087,6.143,0,7.68a5.509,5.509,0,0,0,1.5,3.9,5.552,5.552,0,0,0,3.9,1.5c1.537.087,6.143.087,7.68,0a5.509,5.509,0,0,0,3.9-1.5,5.545,5.545,0,0,0,1.5-3.9c.087-1.537.087-6.139,0-7.676Zm-1.985,9.325A3.141,3.141,0,0,1,14.8,16.563c-1.225.486-4.133.374-5.487.374s-4.266.108-5.487-.374a3.141,3.141,0,0,1-1.769-1.769c-.486-1.225-.374-4.133-.374-5.487s-.108-4.266.374-5.487A3.141,3.141,0,0,1,3.824,2.051c1.225-.486,4.133-.374,5.487-.374s4.266-.108,5.487.374A3.141,3.141,0,0,1,16.567,3.82c.486,1.225.374,4.133.374,5.487S17.053,13.573,16.567,14.794Z" fill="#878787"/>
</svg>
