<svg xmlns="http://www.w3.org/2000/svg" width="22.857" height="18.564" viewBox="0 0 22.857 18.564">
  <path id="Icon_awesome-twitter" data-name="Icon awesome-twitter" d="M20.508,4.627c.015.2.015.406.015.609A13.237,13.237,0,0,1,7.194,18.565,13.238,13.238,0,0,1,0,16.462a9.691,9.691,0,0,0,1.131.058,9.382,9.382,0,0,0,5.816-2,4.693,4.693,0,0,1-4.38-3.249,5.908,5.908,0,0,0,.885.073,4.955,4.955,0,0,0,1.233-.16,4.685,4.685,0,0,1-3.756-4.6V6.527a4.718,4.718,0,0,0,2.117.595A4.692,4.692,0,0,1,1.6.856a13.316,13.316,0,0,0,9.659,4.9,5.288,5.288,0,0,1-.116-1.073,4.689,4.689,0,0,1,8.107-3.205A9.223,9.223,0,0,0,22.219.348,4.672,4.672,0,0,1,20.16,2.93a9.391,9.391,0,0,0,2.7-.725,10.07,10.07,0,0,1-2.35,2.422Z" fill="#878787"/>
</svg>
