<?xml version="1.0" encoding="utf-8"?><svg version="1.1" id="Layer_1" xmlns="http://www.w3.org/2000/svg" xmlns:xlink="http://www.w3.org/1999/xlink" x="0px" y="0px" viewBox="0 0 122.88 122.88" style="enable-background:new 0 0 122.88 122.88" xml:space="preserve"><g><path d="M121.3,44.9L44.9,121.3c-0.03,0.03-0.07,0.06-0.12,0.08c-0.5,0.48-1.07,0.84-1.67,1.09c-0.66,0.27-1.37,0.41-2.07,0.41 c-0.7,0-1.41-0.13-2.07-0.41c-0.64-0.26-1.23-0.65-1.75-1.17l-10.04-10.04c-0.32-0.32-0.5-0.74-0.54-1.18 c-0.04-0.42,0.06-0.86,0.29-1.24l0.02-0.04c0.59-0.91,1.01-1.89,1.26-2.91c0.25-1.04,0.32-2.11,0.22-3.17l0-0.01 c-0.11-1.04-0.39-2.08-0.85-3.05c-0.44-0.93-1.05-1.8-1.82-2.58c-0.77-0.77-1.65-1.38-2.58-1.82c-0.97-0.46-2.01-0.75-3.05-0.85 c-1.03-0.11-2.09-0.03-3.11,0.21c-1,0.24-1.97,0.65-2.86,1.22c-0.38,0.29-0.85,0.41-1.3,0.38c-0.45-0.03-0.88-0.22-1.22-0.55 c-0.88-0.81-10.06-9.96-10.06-10.06c-0.52-0.52-0.91-1.11-1.17-1.75C0.13,83.22,0,82.51,0,81.81c0-0.71,0.13-1.41,0.41-2.07 c0.26-0.63,0.64-1.21,1.15-1.73L77.98,1.58c0.52-0.52,1.12-0.91,1.75-1.17C80.39,0.13,81.1,0,81.81,0s1.41,0.13,2.07,0.41 c0.64,0.26,1.23,0.65,1.75,1.17l10.11,10.11c0.3,0.3,0.49,0.71,0.54,1.13c0.05,0.41-0.03,0.84-0.25,1.22l-0.02,0.03 c-0.55,0.88-0.94,1.84-1.15,2.83c-0.22,1.02-0.27,2.07-0.15,3.1l0,0.01c0.13,1.01,0.42,2.01,0.88,2.95c0.44,0.9,1.04,1.75,1.8,2.51 l0,0c0.74,0.76,1.58,1.35,2.48,1.79c0.94,0.46,1.95,0.75,2.97,0.88c1.01,0.12,2.03,0.08,3.03-0.13c0.99-0.21,1.94-0.57,2.83-1.09 c0.39-0.25,0.85-0.36,1.3-0.32c0.42,0.04,0.84,0.21,1.17,0.53c0.88,0.81,10.13,10.04,10.13,10.13c0.52,0.52,0.91,1.11,1.17,1.75 c0.27,0.66,0.41,1.37,0.41,2.07c0,0.71-0.13,1.41-0.41,2.07c-0.26,0.62-0.64,1.21-1.15,1.73L121.3,44.9L121.3,44.9z M77.15,54.81 l2.93,2.93c0.15,0.15,0.15,0.39,0,0.54c-0.05,0.05-0.12,0.09-0.19,0.1L46.1,68.41c-0.14,0.04-0.28,0-0.38-0.1l-2.93-2.93 c-0.15-0.15-0.15-0.39,0-0.54c0.05-0.05,0.12-0.09,0.19-0.1l33.79-10.03C76.91,54.67,77.06,54.72,77.15,54.81L77.15,54.81z M53.76,42.71c0.49-0.49,1.03-0.92,1.62-1.29c0.58-0.36,1.2-0.66,1.86-0.89c0.68-0.24,1.36-0.36,2.05-0.37 c0.69-0.01,1.38,0.09,2.07,0.29l0.02,0.01c0.68,0.2,1.35,0.51,1.99,0.91c0.65,0.41,1.27,0.91,1.87,1.51 c0.89,0.89,1.56,1.81,2.01,2.77c0.45,0.97,0.69,1.98,0.69,3.02c0.01,1.04-0.21,2.03-0.63,2.98c-0.43,0.94-1.06,1.84-1.91,2.68 c-0.85,0.85-1.75,1.49-2.7,1.92c-0.95,0.43-1.95,0.64-2.99,0.64c-1.04-0.01-2.04-0.24-3.02-0.69c-0.96-0.45-1.89-1.12-2.77-2.01 c-0.6-0.6-1.11-1.23-1.51-1.87c-0.41-0.65-0.71-1.32-0.92-2.01c-0.21-0.69-0.31-1.38-0.29-2.07c0.01-0.69,0.14-1.37,0.37-2.05 l0.01-0.02c0.23-0.66,0.52-1.27,0.89-1.85C52.82,43.75,53.26,43.21,53.76,42.71L53.76,42.71z M58.19,47.21 c-0.56,0.56-0.99,1.08-1.3,1.56c-0.3,0.47-0.48,0.9-0.54,1.29l0,0c-0.04,0.23-0.02,0.45,0.05,0.65c0.07,0.21,0.21,0.41,0.4,0.6 c0.19,0.19,0.39,0.32,0.59,0.39c0.2,0.07,0.41,0.08,0.63,0.04l0.02,0c0.39-0.06,0.81-0.24,1.28-0.54c0.49-0.31,1.01-0.74,1.56-1.3 c0.55-0.55,0.98-1.07,1.29-1.55c0.3-0.47,0.48-0.9,0.55-1.3l0,0c0.04-0.22,0.02-0.43-0.05-0.62c-0.07-0.2-0.21-0.4-0.4-0.6 c-0.2-0.2-0.4-0.33-0.6-0.41c-0.2-0.07-0.41-0.09-0.64-0.06c-0.39,0.06-0.82,0.24-1.29,0.54C59.27,46.22,58.75,46.65,58.19,47.21 L58.19,47.21z M57.46,68.64c0.5-0.5,1.04-0.93,1.62-1.3c0.58-0.37,1.2-0.67,1.86-0.9c0.67-0.23,1.35-0.36,2.04-0.37 c0.69-0.01,1.38,0.08,2.08,0.29l0,0c0.69,0.21,1.37,0.51,2.01,0.92c0.65,0.4,1.27,0.9,1.87,1.5c0.89,0.89,1.56,1.82,2.02,2.79 c0.46,0.97,0.69,1.98,0.69,3.03c0,1.04-0.21,2.04-0.64,2.99c-0.43,0.94-1.07,1.84-1.91,2.69c-0.85,0.85-1.75,1.49-2.69,1.91 c-0.95,0.43-1.95,0.64-2.99,0.64c-1.04,0-2.05-0.23-3.03-0.69c-0.97-0.45-1.9-1.12-2.79-2.02l-0.02-0.02 c-0.59-0.6-1.09-1.21-1.48-1.85c-0.4-0.65-0.71-1.32-0.92-2.01l-0.01-0.03c-0.2-0.69-0.29-1.37-0.28-2.05 c0.01-0.69,0.14-1.37,0.37-2.04c0.23-0.66,0.53-1.28,0.9-1.86C56.53,69.68,56.96,69.14,57.46,68.64L57.46,68.64L57.46,68.64z M61.89,73.14c-0.56,0.56-1,1.09-1.31,1.57c-0.3,0.47-0.48,0.9-0.55,1.3l0,0c-0.04,0.22-0.02,0.43,0.05,0.62 c0.07,0.2,0.21,0.4,0.4,0.6c0.19,0.19,0.39,0.33,0.6,0.4c0.2,0.07,0.41,0.09,0.64,0.06c0.4-0.07,0.83-0.25,1.3-0.55 c0.49-0.31,1.01-0.75,1.57-1.31c0.56-0.56,0.99-1.08,1.31-1.57c0.3-0.47,0.49-0.91,0.56-1.31l0-0.02c0.03-0.21,0.01-0.42-0.06-0.61 c-0.07-0.21-0.21-0.41-0.4-0.6c-0.19-0.19-0.39-0.33-0.6-0.4c-0.2-0.07-0.41-0.08-0.63-0.04l-0.01,0c-0.4,0.07-0.83,0.25-1.29,0.54 v0C62.97,72.15,62.45,72.59,61.89,73.14L61.89,73.14z M19.4,65.71l37.81,37.81l46.29-46.29L65.69,19.42L19.4,65.71L19.4,65.71z M54.5,106.23L16.69,68.42L4.35,80.76c-0.14,0.14-0.25,0.31-0.32,0.49c-0.08,0.2-0.12,0.4-0.12,0.6c0,0.21,0.04,0.41,0.11,0.6 c0.07,0.17,0.17,0.33,0.31,0.47l9.02,9.02c1.07-0.53,2.21-0.92,3.36-1.14c1.26-0.24,2.55-0.3,3.82-0.17 c1.49,0.13,2.95,0.53,4.31,1.17c1.34,0.63,2.59,1.5,3.68,2.6c1.09,1.09,1.94,2.33,2.56,3.65c0.65,1.39,1.06,2.86,1.21,4.35 c0.13,1.27,0.08,2.56-0.17,3.81c-0.22,1.16-0.6,2.29-1.14,3.37l9,9c0.14,0.14,0.31,0.25,0.49,0.32c0.19,0.08,0.4,0.12,0.6,0.12 c0.21,0,0.41-0.04,0.6-0.11c0.18-0.07,0.34-0.18,0.49-0.33L54.5,106.23L54.5,106.23z M68.4,16.71l37.81,37.81l12.36-12.36 c0.04-0.04,0.09-0.07,0.15-0.09c0.09-0.11,0.16-0.23,0.21-0.36c0.08-0.2,0.12-0.4,0.12-0.6c0-0.21-0.04-0.41-0.11-0.6 c-0.07-0.17-0.17-0.33-0.31-0.47l-9.1-9.1c-1.07,0.48-2.2,0.82-3.34,1.01c-1.23,0.2-2.49,0.23-3.73,0.08 c-1.46-0.17-2.87-0.58-4.21-1.23c-1.29-0.63-2.49-1.47-3.57-2.55c-1.07-1.07-1.91-2.28-2.54-3.56c-0.65-1.34-1.06-2.77-1.23-4.21 c-0.15-1.24-0.12-2.5,0.08-3.73c0.19-1.14,0.53-2.27,1.01-3.34l-9.08-9.08c-0.14-0.14-0.31-0.25-0.49-0.32 c-0.19-0.08-0.4-0.12-0.6-0.12c-0.21,0-0.41,0.04-0.6,0.11c-0.18,0.07-0.34,0.18-0.49,0.33L68.4,16.71L68.4,16.71z"/></g></svg>