<?xml version="1.0" encoding="utf-8"?><svg version="1.1" id="Layer_1" xmlns="http://www.w3.org/2000/svg" xmlns:xlink="http://www.w3.org/1999/xlink" x="0px" y="0px" viewBox="0 0 122.88 78.6" style="enable-background:new 0 0 122.88 78.6" xml:space="preserve"><style type="text/css">.st0{fill-rule:evenodd;clip-rule:evenodd;}</style><g><path fill="rgb(255,255,255)" class="st0" d="M99.71,22.68c3.03-6.48,2.98-11.83,0.06-16.14l-18.15,31.5l4.51,8L99.71,22.68L99.71,22.68L99.71,22.68z M117.25,63.3h-0.41c-0.34-1.31-0.83-2.65-1.48-4h1.89c0.06,0,0.12,0.01,0.18,0.04c0.15-0.02,0.28-0.05,0.42-0.11 c0.2-0.09,0.38-0.2,0.53-0.35c0.15-0.15,0.27-0.33,0.36-0.52c0.07-0.18,0.12-0.37,0.12-0.57V44.5c-1.13-0.43-2.21-1.01-3.18-1.7 c-1.04-0.75-1.99-1.65-2.78-2.67c-0.94-1.19-1.67-2.52-2.18-3.97c-0.48-1.4-0.75-2.89-0.75-4.47c0-1.56,0.27-3.06,0.75-4.46 c0.5-1.45,1.25-2.8,2.18-3.97c0.8-1.02,1.74-1.91,2.78-2.67c0.97-0.69,2.05-1.27,3.18-1.7V5.62c0-0.2-0.04-0.41-0.12-0.59 c-0.08-0.2-0.2-0.38-0.35-0.53c-0.15-0.15-0.33-0.27-0.52-0.36c-0.18-0.08-0.38-0.12-0.6-0.12L82.59,4.05l0,0v4.28h-3.96V4.05H27.6 l0,0v4.28h-3.96V4.05l-18.03,0c-0.2,0-0.41,0.04-0.59,0.12c-0.2,0.09-0.38,0.2-0.53,0.35C4.34,4.68,4.23,4.86,4.14,5.05 C4.07,5.22,4.02,5.41,4.02,5.62V18.8c1.17,0.39,2.29,0.94,3.29,1.62c1.1,0.75,2.08,1.64,2.91,2.67c0.99,1.18,1.77,2.54,2.29,4 c0.52,1.44,0.8,2.99,0.79,4.59c0,1.59-0.29,3.12-0.8,4.54c-0.54,1.49-1.31,2.86-2.29,4.06c-0.83,1.02-1.81,1.93-2.91,2.66 c-1.01,0.69-2.11,1.23-3.29,1.63v13.15c0,0.2,0.04,0.41,0.12,0.59c0.08,0.2,0.2,0.38,0.35,0.53c0.15,0.15,0.33,0.27,0.52,0.36 c0.18,0.08,0.38,0.12,0.6,0.12l18.04-0.01l0,0v-4.69h3.96v4.69h17.68c-0.65,1.35-1.13,2.68-1.47,4H5.62 c-0.04,0-0.09-0.01-0.15-0.03c-0.72-0.01-1.4-0.17-2.02-0.42c-0.68-0.28-1.3-0.7-1.81-1.21c-0.51-0.51-0.93-1.13-1.21-1.81 c-0.28-0.66-0.42-1.37-0.42-2.13V43.02c0-0.47,0.17-0.91,0.47-1.26c0.28-0.34,0.67-0.58,1.12-0.69l0.04-0.02 c1.1-0.23,2.12-0.64,3.05-1.21c0.94-0.58,1.78-1.31,2.48-2.15l0.01-0.01c0.68-0.84,1.23-1.8,1.61-2.85c0.36-1,0.55-2.08,0.56-3.21 c0-1.12-0.2-2.21-0.56-3.21c-0.37-1.04-0.92-2.02-1.61-2.85c-0.67-0.83-1.5-1.55-2.43-2.12c-0.91-0.55-1.91-0.96-2.98-1.2 c-0.49-0.07-0.92-0.32-1.23-0.67c-0.31-0.35-0.48-0.8-0.49-1.29C0,19.04-0.03,5.65,0.05,5.57c0-0.76,0.15-1.48,0.42-2.13 c0.26-0.67,0.69-1.29,1.2-1.8c0.52-0.52,1.12-0.94,1.81-1.21c0.65-0.27,1.35-0.42,2.1-0.42L117.25,0c0.76,0,1.48,0.15,2.13,0.42 c0.69,0.28,1.3,0.7,1.82,1.22c0.52,0.52,0.94,1.12,1.21,1.81c0.28,0.66,0.42,1.37,0.42,2.13v14.77c0,0.44-0.16,0.88-0.43,1.22 c-0.26,0.34-0.64,0.59-1.07,0.71l-0.04,0.01c-1.04,0.24-2.03,0.66-2.91,1.23c-0.91,0.58-1.71,1.32-2.37,2.16l-0.01,0.01 c-0.64,0.83-1.16,1.78-1.51,2.8c-0.34,0.98-0.52,2.04-0.52,3.15l0,0c-0.01,1.1,0.17,2.14,0.5,3.12c0.35,1.02,0.88,1.97,1.53,2.81 c0.65,0.83,1.42,1.54,2.31,2.12c0.88,0.57,1.83,1,2.86,1.27c0.47,0.1,0.88,0.36,1.18,0.72c0.28,0.34,0.46,0.77,0.47,1.24 c0.05,1.23,0.07,14.74,0,14.8c0,0.76-0.15,1.48-0.42,2.13c-0.28,0.68-0.7,1.3-1.21,1.81c-0.52,0.52-1.13,0.94-1.81,1.21 c-0.64,0.26-1.35,0.42-2.1,0.42H117.25L117.25,63.3L117.25,63.3z M27.6,13.4v8.88h-3.96V13.4H27.6L27.6,13.4z M27.6,27.35v8.89 h-3.96v-8.89H27.6L27.6,27.35z M27.6,41.3v9.53h-3.96V41.3H27.6L27.6,41.3z M78.63,30.34v-2.99h3.96v3.02l-1.43,0.25h-0.82 L78.63,30.34L78.63,30.34z M78.63,22.28V13.4h3.96v8.88H78.63L78.63,22.28z M60.95,22.68c-3.03-6.48-2.98-11.83-0.06-16.14 l21.96,38.11c1.02,1.32,1.65,2.72,1.74,4.23c0.08,1.41-0.33,1.93-0.56,3.16c-0.19,1.03-0.08,2.08,0.6,3.17l0.91,1 c0.82,0.9,1.53,1.98,2.91,1.8c0.93-0.12,1.71-0.9,2.38-2.16c0.87-0.96,1.88-1.7,3.04-2.22c1.13-0.5,2.39-0.79,3.8-0.85 c4.43,0.23,8.26,2.29,11.13,7.28c3.48,5.68,3.08,10.47,0.5,14.77c-1.99,2.61-4.4,3.77-7.14,3.77c-4.18,0.01-7.57-2-10.19-5.12 c-1.67-1.98-3.05-4.35-4.5-7l-5.3-6.77l-0.62-1.58L60.95,22.68L60.95,22.68L60.95,22.68z M80.46,46.3c1.16,0,2.1,0.94,2.1,2.1 c0,1.16-0.94,2.1-2.1,2.1c-1.16,0-2.1-0.94-2.1-2.1C78.36,47.24,79.3,46.3,80.46,46.3L80.46,46.3L80.46,46.3z M93.51,59.34 c1.5-2.29,4.02-2.53,6.42-1.68c1.93,0.68,3.6,2.12,5,4.29c1.18,1.83,2.11,4.78,1.87,7.34c-0.46,4.96-4.87,5.89-8.71,3.73 c-1.71-0.96-3.07-2.39-4.06-4.32c-0.66-1.31-1.23-2.86-1.44-4.42C92.36,62.54,92.55,60.79,93.51,59.34L93.51,59.34L93.51,59.34z M76.62,53.8c-0.1,0.46-0.29,0.93-0.59,1.41l-0.91,1c-0.82,0.9-1.52,1.98-2.91,1.8c-0.93-0.12-1.71-0.9-2.38-2.16 c-0.87-0.96-1.88-1.7-3.04-2.22c-1.13-0.5-2.39-0.79-3.8-0.85c-4.43,0.23-8.26,2.29-11.13,7.28c-3.48,5.68-3.08,10.47-0.5,14.77 c1.99,2.61,4.4,3.76,7.14,3.77c4.18,0.01,7.57-2,10.19-5.12c1.67-1.98,3.05-4.35,4.5-7l6.23-7.96l-0.21-0.35l-0.07-0.11L76.62,53.8 L76.62,53.8L76.62,53.8z M67.16,59.34c-1.49-2.29-4.02-2.53-6.42-1.68c-1.93,0.68-3.6,2.12-5,4.29c-1.18,1.83-2.11,4.78-1.86,7.34 c0.46,4.96,4.87,5.89,8.71,3.73c1.71-0.96,3.07-2.39,4.06-4.32c0.66-1.31,1.23-2.86,1.44-4.42C68.31,62.54,68.11,60.79,67.16,59.34 L67.16,59.34L67.16,59.34z"/></g></svg>