<svg xmlns="http://www.w3.org/2000/svg" width="118.727" height="163.308" viewBox="0 0 118.727 163.308">
  <g id="Group_5412" data-name="Group 5412" transform="translate(-2714.765 -4211.561)">
    <rect id="Rectangle_1753" data-name="Rectangle 1753" width="13.192" height="4.397" transform="translate(2758.738 4273.121)"/>
    <rect id="Rectangle_1754" data-name="Rectangle 1754" width="26.384" height="4.397" transform="translate(2785.121 4255.531)"/>
    <rect id="Rectangle_1755" data-name="Rectangle 1755" width="26.384" height="4.397" transform="translate(2785.121 4273.121)"/>
    <rect id="Rectangle_1756" data-name="Rectangle 1756" width="13.192" height="4.397" transform="translate(2758.738 4237.942)"/>
    <rect id="Rectangle_1757" data-name="Rectangle 1757" width="13.192" height="4.397" transform="translate(2758.738 4255.531)"/>
    <path id="Path_11919" data-name="Path 11919" d="M4191.013,1071.94h20.535a4.4,4.4,0,0,0,4.4-4.4V975.37a11,11,0,0,0-10.992-10.993H4108.21a11,11,0,0,0-10.992,10.993v61.307a2.344,2.344,0,0,0,3.408,2.106l11-5.5a2.158,2.158,0,0,1,.984-.233,2.232,2.232,0,0,1,1.156.325,2.2,2.2,0,0,1,1.041,1.874v32.29a4.4,4.4,0,0,0,4.4,4.4h20.537a2.2,2.2,0,0,1,2.2,2.2v9.3a2.2,2.2,0,0,1-2.2,2.2h-16.285a2.417,2.417,0,0,0-1.639,4.2l39.084,36.1a6.6,6.6,0,0,0,8.951,0l39.08-36.1a2.418,2.418,0,0,0-1.641-4.2h-16.279a2.2,2.2,0,0,1-2.2-2.2v-9.3A2.2,2.2,0,0,1,4191.013,1071.94Zm-76.207-46.519a2.2,2.2,0,0,1-1.217,1.965l-8.795,4.4a2.2,2.2,0,0,1-3.18-1.966V975.37a6.6,6.6,0,1,1,13.191,0Zm71.809,64.619h10a2.2,2.2,0,0,1,1.5,3.813l-31.238,28.855a2.21,2.21,0,0,1-2.986,0l-31.234-28.855a2.2,2.2,0,0,1,1.49-3.812h12.2v-39.915h-4.4v15.219a2.2,2.2,0,0,1-2.2,2.2H4121.4a2.2,2.2,0,0,1-2.2-2.2V975.37a11.055,11.055,0,0,0-.623-3.667,2.2,2.2,0,0,1,2.07-2.929h84.3a6.6,6.6,0,0,1,6.6,6.6v89.974a2.2,2.2,0,0,1-2.2,2.2h-18.336a2.2,2.2,0,0,1-2.2-2.2v-15.219h-4.4v39.915Z" transform="translate(-1382.453 3247.184)"/>
  </g>
</svg>
