<svg xmlns="http://www.w3.org/2000/svg" width="1360" height="710.621" viewBox="0 0 360 210.621">
  <g id="email-mail-sent" transform="translate(0)">
    <path fill="rgb(255,255,255)" id="Path_1" data-name="Path 1" d="M86.6,0H344.482a15.336,15.336,0,0,1,15.469,16.7L347,193.921a17.892,17.892,0,0,1-3.574,9.375,7.062,7.062,0,0,1-1.729,2.344,6.644,6.644,0,0,1-1.641,1.084,17.729,17.729,0,0,1-10.957,3.9H71.223a15.336,15.336,0,0,1-15.5-16.7L59.386,164.1h12.8L69.025,186.89h0l97-90.618L81.067,22.618l-.85,11.514H67.385L68.645,16.7A18.3,18.3,0,0,1,86.6,0ZM6.416,145.844a6.416,6.416,0,1,1,0-12.832H91.057a6.416,6.416,0,1,1,0,12.832Zm31.729-39.728a6.416,6.416,0,1,1,0-12.832h73.42a6.416,6.416,0,0,1,0,12.832ZM6.416,66.389a6.416,6.416,0,0,1,0-12.832H91.057a6.416,6.416,0,1,1,0,12.832Zm168.989,38.028-99.993,93.4H326l-82.239-93.4-31.173,25.02h0a6.415,6.415,0,0,1-8.2.088l-28.975-25.108Zm78.723-8.291,80.569,91.5L346.8,21.8,254.128,96.126ZM89.973,12.8,209.3,116.253,338.3,12.8H89.973Z" transform="translate(0)"/>
  </g>
</svg>
