<?xml version="1.0" encoding="utf-8"?>
<!-- Generator: Adobe Illustrator 24.2.0, SVG Export Plug-In . SVG Version: 6.00 Build 0)  -->
<svg version="1.1" id="Layer_1" xmlns="http://www.w3.org/2000/svg" xmlns:xlink="http://www.w3.org/1999/xlink" x="0px" y="0px"
	 viewBox="0 0 185.4 99.7" style="enable-background:new 0 0 185.4 99.7;" xml:space="preserve">
<style type="text/css">
	.st0{fill:#AFAFAF;}
	.st1{fill:#141414;}
	.st2{fill:#F59E0C;}
	.st3{font-family:'ArialMT';}
	.st4{font-size:17.9374px;}
	.st5{font-size:17.95px;}
	.st6{fill:none;stroke:#B2B2B2;stroke-width:0.75;stroke-miterlimit:10;}
</style>
<g>
	<path class="st0" d="M36.1,76.4H23.4c-1.4,0-3,0-2.9-2c0.1-1.7,1.7-1.4,2.9-1.4c8.7,0,17.4,0,26.1,0c1.2,0,2.7-0.2,2.8,1.5
		c0.1,2-1.5,1.9-2.9,1.9C45,76.4,40.5,76.4,36.1,76.4z"/>
	<path class="st1" d="M53.9,87.1c-2,0-4.1,0-6.1,0c-1,0-1.9-0.4-1.8-1.7c0-0.8,0.7-1.5,1.6-1.4c0,0,0.1,0,0.1,0c4.3,0,8.7,0,13,0
		c1,0,2,0.4,1.8,1.7s-1.1,1.4-2.1,1.4L53.9,87.1C53.9,87.1,53.9,87.1,53.9,87.1z"/>
	<path class="st2" d="M33.7,99.3c-2,0-4.1,0-6.1,0c-0.9,0-1.7-0.4-1.8-1.3s0.7-1.5,1.5-1.5c4.2,0,8.4,0,12.6,0
		c0.8,0,1.7,0.2,1.8,1.3c0,1.3-1,1.5-2,1.5C37.8,99.4,35.8,99.3,33.7,99.3z"/>
	<path class="st1" d="M39.2,87.2c-1.2-0.1-2.7,0.1-2.7-1.6s1.6-1.6,2.8-1.6s2.7-0.1,2.7,1.6S40.4,87.1,39.2,87.2z"/>
	<path class="st0" d="M2.5,73.6c1.4,0.2,3.1-0.2,3,1.6s-1.8,1.2-3,1.2S0,76.7,0,75.1C-0.1,73.2,1.8,74,2.5,73.6z"/>
	<path class="st2" d="M16.8,96.5c1,0.1,2.4-0.1,2.3,1.5c0,1.2-1.1,1.4-2,1.4s-2.3,0-2.3-1.5C14.7,96.6,15.8,96.6,16.8,96.5z"/>
	<path class="st0" d="M12.9,76.4c-1.2-0.1-2-0.7-2-1.7c0-1.3,0.9-1.9,2.1-1.8c0.9,0,1.6,0.7,1.6,1.6c0,0.1,0,0.2,0,0.3
		C14.6,75.7,13.9,76.5,12.9,76.4z"/>
	<path class="st0" d="M149.4,76.8H162c1.4,0,3,0,2.9-2c-0.1-1.7-1.7-1.4-2.9-1.4c-8.7,0-17.4,0-26.1,0c-1.2,0-2.7-0.2-2.9,1.5
		c-0.1,2,1.5,1.9,2.9,1.9C140.4,76.8,144.9,76.8,149.4,76.8z"/>
	<path class="st1" d="M131.5,87.5c2,0,4.1,0,6.1,0c1,0,1.9-0.4,1.8-1.7c-0.1-0.8-0.8-1.5-1.6-1.4c0,0,0,0-0.1,0c-4.3,0-8.7,0-13,0
		c-1,0-2,0.4-1.8,1.7s1.1,1.4,2.1,1.4L131.5,87.5L131.5,87.5z"/>
	<path class="st2" d="M151.7,99.7c2,0,4.1,0,6.1,0c0.9,0,1.7-0.4,1.8-1.3s-0.7-1.5-1.6-1.5c-4.2,0-8.4,0-12.6,0
		c-0.8,0-1.7,0.2-1.8,1.3c-0.1,1.3,1,1.5,2,1.5C147.6,99.8,149.6,99.7,151.7,99.7L151.7,99.7z"/>
	<path class="st1" d="M146.2,87.5c1.2-0.1,2.7,0.1,2.7-1.6s-1.6-1.5-2.8-1.5s-2.7-0.1-2.6,1.6S145,87.5,146.2,87.5L146.2,87.5z"/>
	<path class="st0" d="M182.9,74c-1.4,0.2-3.1-0.2-3,1.6s1.8,1.2,3,1.2s2.5,0.3,2.5-1.3C185.5,73.6,183.7,74.4,182.9,74z"/>
	<path class="st2" d="M168.6,96.9c-1,0.1-2.4-0.1-2.3,1.5c0,1.2,1.1,1.4,2.1,1.4s2.3,0,2.3-1.5C170.7,96.9,169.6,97,168.6,96.9
		L168.6,96.9z"/>
	<path class="st0" d="M172.5,76.8c1.2-0.1,2-0.7,2-1.7c0-1.3-0.9-1.9-2.1-1.8c-0.9,0-1.6,0.7-1.6,1.6c0,0.1,0,0.2,0,0.3
		C170.8,76.1,171.6,76.9,172.5,76.8L172.5,76.8z"/>
	<text transform="matrix(0.9507 0.3102 -0.3102 0.9507 134.4998 48.1498)" class="st2 st3 st4">+</text>
	<text transform="matrix(0.9848 -0.1736 0.1736 0.9848 60.5996 16.945)" class="st2 st3 st5">+</text>
	<text transform="matrix(1 0 0 1 32.21 40.9)" class="st0 st3 st5">+</text>
	<polygon class="st6" points="56.1,51.9 52.8,58.9 48.7,52.2 	"/>
	<polygon class="st6" points="106,17.1 106.1,9.4 112.7,13.7 	"/>
	<circle class="st2" cx="29.1" cy="53.5" r="3.4"/>
	<circle class="st0" cx="21.5" cy="86.1" r="3.4"/>
	<circle class="st1" cx="80.8" cy="21.1" r="2.1"/>
	<circle class="st1" cx="136.6" cy="16.9" r="2.1"/>
	<g>
		<g>
			<path class="st2" d="M115.9,41.9c-0.7-0.8-1.7-1.3-2.8-1.3H77.7c-0.6,0-1,0.5-1,1s0.5,1,1,1h35.4c0.5,0,0.9,0.2,1.2,0.6
				c0.3,0.3,0.4,0.8,0.4,1.3l-3.4,15c0,0,0,0.1,0,0.1c-0.2,1.2-1.3,2.2-2.6,2.2H84.6c-0.6,0-1,0.5-1,1c0,0.6,0.5,1,1,1h24.2
				c2.3,0,4.2-1.6,4.6-3.9l3.4-15c0,0,0-0.1,0-0.1C116.9,43.8,116.6,42.8,115.9,41.9L115.9,41.9L115.9,41.9z"/>
			<path class="st2" d="M83,73.6c-2.7,0-4.8,2.2-4.8,4.8c0,2.7,2.2,4.8,4.8,4.8c2.7,0,4.8-2.2,4.8-4.8S85.6,73.6,83,73.6z M83,81.3
				c-1.5,0-2.8-1.2-2.8-2.8s1.2-2.8,2.8-2.8s2.8,1.2,2.8,2.8S84.5,81.3,83,81.3z"/>
			<path class="st2" d="M104.5,73.6c-2.7,0-4.8,2.2-4.8,4.8c0,2.7,2.2,4.8,4.8,4.8c2.7,0,4.8-2.2,4.8-4.8S107.2,73.6,104.5,73.6z
				 M104.5,81.3c-1.5,0-2.8-1.2-2.8-2.8s1.2-2.8,2.8-2.8s2.8,1.2,2.8,2.8S106,81.3,104.5,81.3z"/>
			<path class="st2" d="M108.3,68.9H79.4l-2.7-10.6l-5.3-22.7c-0.3-1.3-1.5-2.3-2.9-2.3h-6.8c-0.6,0-1,0.5-1,1s0.5,1,1,1h6.8
				c0.4,0,0.8,0.3,0.9,0.7l4.9,21.4c0,0.1,0,0.2,0,0.2l0.3,1.1v0c0,0,0,0,0,0l2.9,11.3c0.1,0.5,0.5,0.8,1,0.8h0.1h29.6
				c0.6,0,1-0.5,1-1S108.9,68.9,108.3,68.9L108.3,68.9L108.3,68.9z"/>
		</g>
		<g>
			<g>
				<path class="st1" d="M86.7,57.4c1.9-2.2,5-3.5,7.8-3.6c2.2-0.1,4.4,0.4,6.4,1.5c0.7,0.4,1.7,1,2.1,1.5c0.3,0.3,1.1-0.1,0.8-0.4
					c-4.6-4.6-13.5-4.2-17.8,0.7C85.7,57.6,86.5,57.7,86.7,57.4L86.7,57.4C86.7,57.4,86.7,57.4,86.7,57.4z"/>
			</g>
			<path class="st1" d="M89.1,48.3c0.1,0.6-0.2,1.2-0.7,1.4c-0.6,0.1-1.1-0.2-1.2-0.8c-0.1-0.6,0.2-1.2,0.7-1.4
				C88.4,47.3,89,47.7,89.1,48.3z"/>
			<path class="st1" d="M103.3,48.7c0.1,0.6-0.2,1.2-0.7,1.4c-0.6,0.1-1.1-0.2-1.2-0.8s0.2-1.2,0.7-1.4
				C102.6,47.7,103.1,48.1,103.3,48.7z"/>
		</g>
	</g>
</g>
</svg>
