<svg xmlns="http://www.w3.org/2000/svg" width="361.111" height="457.524" viewBox="0 0 361.111 457.524">
  <g id="Group_1" data-name="Group 1" transform="translate(-820.739 -305.55)">
    <g id="Group_2" data-name="Group 2" transform="translate(820.739 305.55)">
      <path id="Path_2" fill="rgb(0,0,0)" data-name="Path 2" d="M344.643,423.685l-6.806-9.607L305.509,453.7l-.03-.037c-3.616,4.431-9.48,4.506-13.156.112l-32.936-39.248-32.268,37.982c-3.525,4.468-9.328,4.692-13.1.447l-34.242-38.764L148.7,453.4c-.182.261-.365.484-.547.745-3.676,4.506-9.632,4.506-13.278,0l-32.6-39.955-33.6,39.248h0c-3.676,4.282-9.51,4.208-13.1-.223L23.608,413.631l-6.654,9.384a8.954,8.954,0,0,1-7.566,4.655c-5.2,0-9.389-5.176-9.389-11.506V11.506C0,5.139,4.193,0,9.389,0H351.722c5.2,0,9.389,5.139,9.389,11.506V416.163h-.03a12.633,12.633,0,0,1-3.251,8.676C353.94,429.01,348.015,428.488,344.643,423.685ZM306.177,58.276c5.348,0,9.692,5.325,9.692,11.916,0,6.554-4.345,11.879-9.692,11.879s-9.692-5.325-9.692-11.879c0-6.591,4.345-11.916,9.692-11.916Zm-62.8,0c5.348,0,9.692,5.325,9.692,11.916,0,6.554-4.345,11.879-9.692,11.879s-9.692-5.325-9.692-11.879c-.03-6.591,4.314-11.916,9.692-11.916Zm-62.8,0c5.348,0,9.692,5.325,9.692,11.916,0,6.554-4.345,11.879-9.692,11.879s-9.692-5.325-9.692-11.879c-.03-6.591,4.314-11.916,9.692-11.916Zm-62.834,0c5.348,0,9.692,5.325,9.692,11.916,0,6.554-4.345,11.879-9.692,11.879s-9.692-5.325-9.692-11.879c0-6.591,4.345-11.916,9.692-11.916Zm-62.8,0c5.348,0,9.692,5.325,9.692,11.916,0,6.554-4.345,11.879-9.692,11.879s-9.692-5.325-9.692-11.879c-.03-6.591,4.314-11.916,9.692-11.916Zm287.4,328.544V23.05H18.808V386.634a8.064,8.064,0,0,1,10.482,1.49,4.386,4.386,0,0,1,.517.6h0l32.6,40.365,33.574-39.173c3.707-4.32,9.51-4.208,13.1.186l.03-.037,32.328,39.62,31.3-39.509c3.555-4.468,9.358-4.655,13.065-.447h0l34.486,39.025,32.693-38.429a8.215,8.215,0,0,1,13.1.112l32.723,38.987L331.7,389.091a8.119,8.119,0,0,1,10.634-2.271Z"/>
      <text id="_" fill="rgb(0,0,0)" data-name="%" transform="translate(118.261 286.447)" font-size="170" font-family="Calibri-Bold, Calibri" font-weight="700"><tspan x="0" y="0">%</tspan></text>
    </g>
  </g>
</svg>
