<svg xmlns="http://www.w3.org/2000/svg" width="244.719" height="244.719" viewBox="0 0 244.719 244.719">
  <g id="Icon_ionic-ios-close-circle-outline" data-name="Icon ionic-ios-close-circle-outline" transform="translate(-3.375 -3.375)">
    <path id="Path_11620" data-name="Path 11620" d="M103.847,90.59l-31-31,31-31A9.4,9.4,0,0,0,90.552,15.292l-31,31-31-31c-3.647-3.647-9.177-4.177-13.295,0a9.083,9.083,0,0,0,0,13.295l31,31-31,31a9.089,9.089,0,0,0,0,13.295,9.338,9.338,0,0,0,13.295,0l31-31,31,31a9.445,9.445,0,0,0,13.295,0A9.339,9.339,0,0,0,103.847,90.59Z" transform="translate(66.184 66.146)"/>
    <path id="Path_11621" data-name="Path 11621" d="M125.734,19.846a105.905,105.905,0,0,1,74.886,180.774A105.905,105.905,0,0,1,50.848,50.848a105.187,105.187,0,0,1,74.886-31m0-16.471A122.359,122.359,0,1,0,248.094,125.734,122.341,122.341,0,0,0,125.734,3.375Z" transform="translate(0 0)"/>
  </g>
</svg>
