<?xml version="1.0" encoding="utf-8"?><svg version="1.1" id="Layer_1" xmlns="http://www.w3.org/2000/svg" xmlns:xlink="http://www.w3.org/1999/xlink" x="0px" y="0px" viewBox="0 0 118.85 122.88" style="enable-background:new 0 0 118.85 122.88" xml:space="preserve"><g><path fill="rgba(255,255, 255)" d="M113.43,113.78l-2.24-2.58l-10.64,10.64l-0.01-0.01c-1.19,1.19-3.12,1.21-4.33,0.03l-10.84-10.54l-10.62,10.2 c-1.16,1.2-3.07,1.26-4.31,0.12l-11.27-10.41l-10.23,10.53c-0.06,0.07-0.12,0.13-0.18,0.2c-1.21,1.21-3.17,1.21-4.37,0 l-10.73-10.73L22.6,121.77l0,0c-1.21,1.15-3.13,1.13-4.31-0.06L7.77,111.08l-2.19,2.52c-0.56,0.76-1.47,1.25-2.49,1.25 c-1.71,0-3.09-1.39-3.09-3.09V3.09C0,1.38,1.38,0,3.09,0h112.67c1.71,0,3.09,1.38,3.09,3.09v108.67h-0.01 c0,0.86-0.36,1.72-1.07,2.33C116.49,115.21,114.54,115.07,113.43,113.78L113.43,113.78z M29.63,86.44v-4.91 c-1.22-0.15-2.33-0.37-3.32-0.64c-1.01-0.28-1.9-0.62-2.68-1.02c-0.78-0.4-1.5-0.93-2.18-1.58c-0.67-0.65-1.29-1.42-1.85-2.31v0 c-0.57-0.9-1.01-1.89-1.34-2.98c-0.33-1.09-0.54-2.28-0.63-3.57l0-0.05l0.05-0.01l4.96-0.96l0.05-0.01l0.01,0.05 c0.19,1.34,0.46,2.49,0.79,3.47c0.34,0.98,0.75,1.77,1.23,2.39c0.69,0.88,1.45,1.56,2.28,2.05c0.81,0.48,1.69,0.77,2.63,0.88V61.8 c-1.01-0.26-2.03-0.61-3.05-1.03c-1.04-0.43-2.09-0.95-3.15-1.54l0,0c-0.79-0.44-1.49-0.96-2.1-1.57c-0.61-0.61-1.13-1.31-1.56-2.1 l0,0c-0.43-0.79-0.75-1.63-0.96-2.52c-0.21-0.89-0.32-1.83-0.32-2.82c0-1.77,0.31-3.37,0.94-4.8c0.63-1.43,1.57-2.7,2.82-3.8 c0.84-0.74,1.88-1.33,3.12-1.78c1.23-0.45,2.66-0.75,4.28-0.92v-2.32v-0.05h0.05h2.93h0.05v0.05v2.32 c1.41,0.14,2.69,0.42,3.81,0.84c1.14,0.43,2.14,1,2.99,1.71c1.08,0.91,1.95,1.98,2.6,3.22c0.65,1.24,1.09,2.66,1.31,4.24l0.01,0.05 l-0.05,0.01l-5.07,0.79l-0.05,0.01l-0.01-0.05c-0.14-0.98-0.37-1.84-0.67-2.59c-0.3-0.75-0.68-1.38-1.14-1.89l0,0 c-0.46-0.52-1-0.95-1.63-1.29c-0.61-0.33-1.31-0.58-2.08-0.75v14.17c1.22,0.31,2.23,0.59,3.04,0.83c0.84,0.25,1.46,0.47,1.87,0.64 l0,0c0.77,0.34,1.47,0.72,2.1,1.13c0.63,0.41,1.19,0.87,1.67,1.36c0.49,0.49,0.92,1.02,1.3,1.6c0.38,0.58,0.69,1.21,0.96,1.88v0 c0.26,0.67,0.46,1.37,0.59,2.1c0.13,0.73,0.2,1.48,0.2,2.26c0,3.44-1.09,6.31-3.28,8.62c-1.09,1.15-2.35,2.03-3.76,2.65 c-1.4,0.61-2.96,0.96-4.67,1.05v4.96v0.05h-0.05h-2.93h-0.05V86.44L29.63,86.44z M88.23,82.01c1.26,0,2.28,1.02,2.28,2.28 c0,1.26-1.02,2.28-2.28,2.28H56.18c-1.26,0-2.28-1.02-2.28-2.28c0-1.26,1.02-2.28,2.28-2.28H88.23L88.23,82.01z M101.27,36.46 c1.26,0,2.28,1.02,2.28,2.28c0,1.26-1.02,2.28-2.28,2.28H56.18c-1.26,0-2.28-1.02-2.28-2.28c0-1.26,1.02-2.28,2.28-2.28H101.27 L101.27,36.46z M101.15,66.83c1.26,0,2.28,1.02,2.28,2.28c0,1.26-1.02,2.28-2.28,2.28H56.18c-1.26,0-2.28-1.02-2.28-2.28 c0-1.26,1.02-2.28,2.28-2.28H101.15L101.15,66.83z M101.27,51.64c1.26,0,2.28,1.02,2.28,2.28s-1.02,2.28-2.28,2.28H56.18 c-1.26,0-2.28-1.02-2.28-2.28s1.02-2.28,2.28-2.28H101.27L101.27,51.64z M29.63,43.12c-0.93,0.15-1.77,0.41-2.5,0.79 c-0.75,0.38-1.4,0.88-1.94,1.51h0c-0.55,0.62-0.96,1.3-1.24,2.03c-0.27,0.73-0.41,1.52-0.41,2.37c0,0.84,0.12,1.61,0.35,2.31 c0.23,0.7,0.58,1.33,1.05,1.9c0.47,0.56,1.1,1.06,1.89,1.49c0.78,0.42,1.71,0.77,2.81,1.06V43.12L29.63,43.12z M32.66,77.26 c0.93-0.12,1.79-0.38,2.56-0.79c0.79-0.41,1.5-0.98,2.12-1.69c0.62-0.71,1.09-1.5,1.4-2.38c0.31-0.88,0.47-1.84,0.47-2.89 c0-0.9-0.11-1.7-0.33-2.42c-0.22-0.72-0.55-1.34-0.99-1.89c-0.44-0.54-1.1-1.03-1.98-1.47c-0.87-0.43-1.95-0.82-3.24-1.16V77.26 L32.66,77.26z M100.77,15.65c1.76,0,3.19,1.43,3.19,3.2c0,1.76-1.43,3.19-3.19,3.19c-1.76,0-3.19-1.43-3.19-3.19 C97.58,17.08,99.01,15.65,100.77,15.65L100.77,15.65z M80.1,15.65c1.76,0,3.19,1.43,3.19,3.2c0,1.76-1.43,3.19-3.19,3.19 c-1.76,0-3.19-1.43-3.19-3.19C76.9,17.08,78.33,15.65,80.1,15.65L80.1,15.65z M59.43,15.65c1.76,0,3.19,1.43,3.19,3.2 c0,1.76-1.43,3.19-3.19,3.19c-1.76,0-3.19-1.43-3.19-3.19C56.23,17.08,57.66,15.65,59.43,15.65L59.43,15.65z M38.75,15.65 c1.76,0,3.19,1.43,3.19,3.2c0,1.76-1.43,3.19-3.19,3.19c-1.76,0-3.19-1.43-3.19-3.19C35.56,17.08,36.99,15.65,38.75,15.65 L38.75,15.65z M18.08,15.65c1.76,0,3.19,1.43,3.19,3.2c0,1.76-1.43,3.19-3.19,3.19c-1.76,0-3.19-1.43-3.19-3.19 C14.88,17.08,16.31,15.65,18.08,15.65L18.08,15.65z M112.67,103.88V6.19H6.19v97.64c1.09-0.57,2.46-0.45,3.45,0.4 c0.06,0.05,0.12,0.1,0.17,0.16l0,0l10.73,10.84l11.05-10.52c1.22-1.16,3.13-1.13,4.31,0.05l0.01-0.01l10.64,10.64l10.3-10.61 c1.17-1.2,3.08-1.25,4.3-0.12l0,0l11.35,10.48l10.76-10.32c1.21-1.16,3.13-1.14,4.31,0.03l10.77,10.47l10.83-10.83 C110.1,103.54,111.52,103.34,112.67,103.88L112.67,103.88z"/></g></svg>