<svg xmlns="http://www.w3.org/2000/svg" xmlns:xlink="http://www.w3.org/1999/xlink" width="29.37" height="33.281" viewBox="0 0 29.37 33.281">
  <defs>
    <filter id="Subtraction_1" x="0" y="0" width="29.37" height="33.281" filterUnits="userSpaceOnUse">
      <feOffset dy="1" input="SourceAlpha"/>
      <feGaussianBlur stdDeviation="1" result="blur"/>
      <feFlood floodOpacity="0.384"/>
      <feComposite operator="in" in2="blur"/>
      <feComposite in="SourceGraphic"/>
    </filter>
  </defs>
  <g transform="matrix(1, 0, 0, 1, 0, 0)" filter="url(#Subtraction_1)">
    <path id="Subtraction_1-2" data-name="Subtraction 1" d="M11.185,26.282a1.776,1.776,0,0,1-.912-.254L.912,20.406A1.916,1.916,0,0,1,0,18.763V7.519A1.915,1.915,0,0,1,.912,5.877L10.274.254a1.768,1.768,0,0,1,1.823,0L21.46,5.877a1.915,1.915,0,0,1,.911,1.642V18.763a1.916,1.916,0,0,1-.911,1.642L12.1,26.028A1.771,1.771,0,0,1,11.185,26.282ZM8.5,10.244,6.227,20.7l3.707-6.534,4.947,1.611L17.018,5.325,13.4,11.66Z" transform="translate(3.5 2.5)" fill="#ffbc00" stroke="rgba(0,0,0,0)" strokeMiterlimit="10" strokeWidth="1"/>
  </g>
</svg>
