<svg xmlns="http://www.w3.org/2000/svg" width="124.835" height="129.715" viewBox="0 0 124.835 129.715">
  <g id="wallet" transform="translate(-2395.96 -2336.737)">
    <circle id="Ellipse_1" data-name="Ellipse 1" cx="3.298" cy="3.298" r="3.298" transform="translate(2508.494 2459.857)"/>
    <path id="Path_12000" data-name="Path 12000" d="M4139.8,579.285v-4.791a5.84,5.84,0,0,0-4.5-5.7,1.943,1.943,0,0,1-1.494-1.774l-.312-5.064a5.839,5.839,0,0,0-7.452-5.267,1.952,1.952,0,0,1-2.422-1.365l-.364-1.346a9.746,9.746,0,0,0-12.373-6.761l-79.371,25.236a9.721,9.721,0,0,0-6.794,9.3v74.266a9.759,9.759,0,0,0,9.752,9.753H4139.8a9.766,9.766,0,0,0,9.751-9.753V590.829a9.721,9.721,0,0,0-8.125-9.62,1.945,1.945,0,0,1-1.626-1.923Zm-6.153-6.714a2,2,0,0,1,.3-.023,1.952,1.952,0,0,1,1.952,1.952v4.7a1.952,1.952,0,0,1-1.924,1.952l-33.292.453h-.025a1.952,1.952,0,0,1-.3-3.878Zm-6.594-12.109a1.951,1.951,0,0,1,.595-.093,1.988,1.988,0,0,1,1.1.339,1.952,1.952,0,0,1,.842,1.491l.324,5.208a1.952,1.952,0,0,1-1.651,2.048L4096.1,574.44a1.888,1.888,0,0,1-.3.023,1.952,1.952,0,0,1-.594-3.808Zm18.6,75.733a1.952,1.952,0,0,1-1.952,1.952h-15.928a13.33,13.33,0,0,1,0-26.661H4143.7a1.952,1.952,0,0,1,1.952,1.952Zm0-45.366v14.8a1.952,1.952,0,0,1-1.952,1.952h-15.928a17.231,17.231,0,0,0,0,34.463H4143.7a1.952,1.952,0,0,1,1.952,1.952v12.023a5.86,5.86,0,0,1-5.855,5.855H4034.47a5.855,5.855,0,0,1-5.855-5.856V581.755a5.829,5.829,0,0,1,4.081-5.579l79.372-25.236a5.84,5.84,0,0,1,7.419,4.057l.458,1.693a1.952,1.952,0,0,1-1.288,2.364L4045.713,582.4l-.262.089a1.952,1.952,0,0,0,.718,3.764l93.549-1.271a5.878,5.878,0,0,1,5.931,5.849Z" transform="translate(-1628.758 1789.98)"/>
  </g>
</svg>
