<svg xmlns="http://www.w3.org/2000/svg" width="15" height="25" viewBox="0 0 15 25">
  <path id="Dictation" d="M11.5,25h-8a.833.833,0,1,1,0-1.667h.03v-.011H6.677V20.79A7.547,7.547,0,0,1,0,13.282c0-.021,0-.04,0-.058v-.016c0-.01,0-.02,0-.029V11.268a.719.719,0,0,1-.006-.1.833.833,0,1,1,1.667,0c0,.024,0,.05,0,.086v2.29l0,.007c0,.014,0,.03,0,.045s0,.03,0,.044v.313h.016a5.87,5.87,0,0,0,5.645,5.377H7.66a5.869,5.869,0,0,0,5.647-5.377h.02V11.175h.006v-.01a.833.833,0,0,1,1.667,0,.668.668,0,0,1,0,.077v2.039h-.01a7.559,7.559,0,0,1-6.66,7.508v2.533h3.14v.011H11.5A.833.833,0,0,1,11.5,25Zm-4-7a4.344,4.344,0,0,1-2.679-.931,4.357,4.357,0,0,1-1.584-2.307,6.189,6.189,0,0,1-.206-1.344C3,12.951,3,12.465,3,11.994V6.986c0-.622,0-2.1,0-2.4a4.782,4.782,0,0,1,.234-1.344,4.426,4.426,0,0,1,8.527,0,6.4,6.4,0,0,1,.234,1.344c.022.387.011,1.712,0,2.424v.006c0,.288,0,.525,0,.654v4.263c0,.492,0,1-.028,1.487a6.3,6.3,0,0,1-.206,1.344,4.394,4.394,0,0,1-1.584,2.307A4.345,4.345,0,0,1,7.5,18Zm0-16.329a2.752,2.752,0,0,0-1.682.577,2.816,2.816,0,0,0-.994,1.487,4.416,4.416,0,0,0-.143.859c-.018.23-.015,1.7-.011,3.923,0,1.219,0,2.6,0,4.151,0,.323,0,.428.02.746a4.161,4.161,0,0,0,.13.86,2.816,2.816,0,0,0,.994,1.487,2.741,2.741,0,0,0,3.363,0,2.825,2.825,0,0,0,.99-1.487,3.919,3.919,0,0,0,.13-.86c.021-.323.027-.431.027-.746,0-1.865,0-3.513.009-4.838.005-1.816.009-3.016,0-3.237a4,4,0,0,0-.16-.859,2.825,2.825,0,0,0-.99-1.487A2.752,2.752,0,0,0,7.5,1.667Z" fill="#50555c"/>
</svg>
