<svg xmlns="http://www.w3.org/2000/svg" width="31.705" height="32" viewBox="0 0 31.705 32">
  <g id="Group_863" data-name="Group 863" transform="translate(0 0)">
    <path id="Path_4419" data-name="Path 4419" d="M139.2,160.733a1.6,1.6,0,0,0-1.9.316,1.3,1.3,0,0,0,.2,1.774C138.812,163.938,140.513,161.834,139.2,160.733Z" transform="translate(-127.077 -148.621)" fill="#313133"/>
    <path id="Path_4420" data-name="Path 4420" d="M255.975,230.027a1.339,1.339,0,0,0-.236.063c-.025,0-.05.013-.075.02l-.006,0a1.136,1.136,0,0,0-.69.588s0,0,0,0a1.2,1.2,0,0,0-.029,1.244c.013.022.032.038.046.059a1.482,1.482,0,0,0,.812.785,1.455,1.455,0,0,0,1.964-1.194A1.543,1.543,0,0,0,255.975,230.027Z" transform="translate(-236.138 -213.052)" fill="#313133"/>
    <path id="Path_4421" data-name="Path 4421" d="M33.626,13.754a.546.546,0,0,0-.192-.734A10.271,10.271,0,0,0,30.1,11.477a32.025,32.025,0,0,0,2.029-2.63.461.461,0,0,0-.4-.69c-.588.023-1.177.041-1.764.071a7.288,7.288,0,0,1-1.721.038.528.528,0,0,0-.118,0c.333-.874.627-1.765.93-2.65.155-.453.423-1.144-.182-1.409-.568-.249-1.631.275-2.173.435-.452.133-.905.284-1.355.443l-.228.06a21.355,21.355,0,0,0,.089-3.36c-.018-.316-.389-.615-.692-.4-1.024.736-2.055,1.49-3.025,2.3-.355-1.117-.747-2.225-1.135-3.328-.1-.3-.554-.515-.791-.209a26.89,26.89,0,0,0-1.875,2.427,20.919,20.919,0,0,0-2.1-2.416.505.505,0,0,0-.837.221,30.222,30.222,0,0,1-1.4,3.542c-.257-.216-.519-.428-.76-.649C12,2.732,11.426,2.169,10.861,1.6a.473.473,0,0,0-.738.1,5.34,5.34,0,0,0-.173,2.535c.023.317.026.739.077,1.144C9.074,5,8.11,4.659,7.16,4.3c-.372-.141-.691.273-.61.61A35.183,35.183,0,0,0,7.483,8.42a26.2,26.2,0,0,1-3.343-.393.494.494,0,0,0-.551.717,22.6,22.6,0,0,0,1.963,2.727c-.324.123-.641.276-.95.411-.795.346-1.571.729-2.335,1.14a.557.557,0,0,0,0,.952c.841.551,1.655,1.141,2.472,1.727-.828.662-1.64,1.344-2.5,1.973a.5.5,0,0,0,.119.908c.671.218,1.339.447,2,.7.371.14.743.315,1.12.464-.67.919-1.253,1.909-1.893,2.847a.517.517,0,0,0,.443.773c1.107,0,2.211.038,3.317.075-.249,1.017-.473,2.04-.729,3.056-.089.351.25.779.634.634L9.435,26.3c.209-.079.494-.149.765-.244-.17,1.2-.14,2.472-.246,3.671a.494.494,0,0,0,.619.472,5.81,5.81,0,0,0,1.787-1.116c.391-.272.852-.484,1.268-.742.264,1.1.716,2.2,1.006,3.285a.531.531,0,0,0,.957.125c.672-.951,1.412-1.919,2-2.934.158.253.328.5.487.745.416.64.833,1.28,1.268,1.907a.52.52,0,0,0,.888,0c.448-.935.864-1.9,1.253-2.864a9.887,9.887,0,0,0,.742.745c.558.5,1.524,1.431,2.321,1.2a.412.412,0,0,0,.268-.273.394.394,0,0,0,.106-.2,23.394,23.394,0,0,0,.37-3.956c.382.2.794.354,1.181.507.733.289,1.469.569,2.2.854a.5.5,0,0,0,.614-.614c-.269-.691-.541-1.377-.761-2.086-.122-.393-.216-.8-.332-1.2l-.025-.341c1.13.12,2.322.046,3.434.063a.527.527,0,0,0,.451-.787,29.614,29.614,0,0,0-1.79-2.739c.317-.1.63-.224.934-.327.66-.224,1.314-.464,1.968-.7a.557.557,0,0,0,.131-1,29.492,29.492,0,0,1-2.477-1.68A9.753,9.753,0,0,0,33.626,13.754ZM12.137,16.482a3.28,3.28,0,0,1-.764-.511c-1.867-1.663-1.681-4.988.852-5.855,2.355-.806,5.051.742,4.508,3.471C16.28,15.864,14.141,16.519,12.137,16.482Zm3.2,5.19a14.463,14.463,0,0,0-1.642.066c-.318.026-.656.049-.989.093A104.93,104.93,0,0,0,20.46,9.719c.45-.026.9-.065,1.348-.117A59.27,59.27,0,0,0,15.338,21.671Zm6.649.072a3.446,3.446,0,0,1-2.091-.421,3.719,3.719,0,0,1-.248-5.162,3.4,3.4,0,0,1,5.553.786C26.327,19.253,24.318,21.569,21.986,21.743Z" transform="translate(-1.999 -0.001)" fill="#313133"/>
    <path id="Path_4422" data-name="Path 4422" d="M269.77,372.68a0,0,0,0,0,0-.007" transform="translate(-250.025 -345.193)" fill="#313133"/>
  </g>
</svg>
