<svg xmlns="http://www.w3.org/2000/svg" width="629" height="596" viewBox="0 0 629 596">
  <g id="Group_1005" data-name="Group 1005" transform="translate(-1463 -97)">
    <path id="Polygon_2" data-name="Polygon 2" d="M273.741,42.086a28,28,0,0,1,48.517,0L571.8,475.017A28,28,0,0,1,547.542,517H48.458A28,28,0,0,1,24.2,475.017Z" transform="translate(1463 693) rotate(-90)" fill="#d1cec9" opacity="0.154"/>
    <path id="Polygon_1" data-name="Polygon 1" d="M238.732,42.169a28,28,0,0,1,48.536,0L501.849,415.034A28,28,0,0,1,477.581,457H48.419a28,28,0,0,1-24.268-41.966Z" transform="translate(1635 658) rotate(-90)" fill="#d1cec9" opacity="0.305"/>
  </g>
</svg>
